<?xml version="1.0" encoding="UTF-8"?>
<!DOCTYPE svg PUBLIC "-//W3C//DTD SVG 1.0//EN" "http://www.w3.org/TR/2001/REC-SVG-20010904/DTD/svg10.dtd">
<!-- Creator: CorelDRAW 2018 (64-Bit) -->
<svg xmlns="http://www.w3.org/2000/svg" xml:space="preserve" width="1in" height="1.02374in" version="1.0" style="shape-rendering:geometricPrecision; text-rendering:geometricPrecision; image-rendering:optimizeQuality; fill-rule:evenodd; clip-rule:evenodd"
viewBox="0 0 18.21 18.64"
 xmlns:xlink="http://www.w3.org/1999/xlink">
 <defs>
  <style type="text/css">
   <![CDATA[
    .str0 {stroke:black;stroke-width:0.97;stroke-miterlimit:22.9256}
    .fil0 {fill:none}
    .fil1 {fill:black}
   ]]>
  </style>
 </defs>
 <g id="Layer_x0020_1">
  <metadata id="CorelCorpID_0Corel-Layer"/>
  <path class="fil0 str0" d="M13.83 18.16c0.97,0 1.69,-0.87 2.18,-1.28 0.71,-0.72 0.16,-1.67 -0.71,-2.34 -0.8,-0.81 -1.34,-1.62 -2.71,-0.6 -0.96,-0.66 -1.39,-1.5 -1.96,-2.08 -0.26,-0.26 -0.46,-0.43 -0.68,-0.71 -0.38,-0.5 -1.91,-2.85 -2.04,-3.4 1.27,-0.3 1.72,-0.9 1.09,-2.1 -0.15,-0.3 -0.35,-0.56 -0.49,-0.78 -1.24,-1.61 -1.9,-1.74 -3.39,-0.4 -0.77,0.71 -0.69,1.39 -0.36,2.42 0.43,1.35 1.57,3.42 2.34,4.5 1.18,1.64 4.85,6.78 6.71,6.78z"/>
  <path class="fil1" d="M-0 8.43c0,5 3.58,8.84 8.35,8.84 0.51,0 0.71,-0.79 0.1,-1.02 -0.82,-0.32 -2.12,0.19 -4.53,-1.61 -1.27,-0.95 -2.78,-3.13 -2.78,-5.41 0,-2.4 0.32,-4.19 2.12,-5.97 2.41,-2.4 6.3,-2.8 9.07,-0.81 1.71,1.23 3.11,3.43 3.11,5.73l-1.52 0 2.13 2.67 2.17 -2.67 -1.64 0c-0.02,-1.04 -0.47,-2.45 -0.81,-3.24 -0.8,-1.85 -2.35,-3.32 -4.12,-4.15 -5.71,-2.67 -11.64,1.98 -11.64,7.66z"/>
 </g>
</svg>
