<?xml version="1.0" encoding="UTF-8"?>
<!DOCTYPE svg PUBLIC "-//W3C//DTD SVG 1.0//EN" "http://www.w3.org/TR/2001/REC-SVG-20010904/DTD/svg10.dtd">
<!-- Creator: CorelDRAW 2018 (64-Bit) -->
<svg xmlns="http://www.w3.org/2000/svg" xml:space="preserve" width="0.857756in" height="1in" version="1.0" style="shape-rendering:geometricPrecision; text-rendering:geometricPrecision; image-rendering:optimizeQuality; fill-rule:evenodd; clip-rule:evenodd"
viewBox="0 0 13.17 15.35"
 xmlns:xlink="http://www.w3.org/1999/xlink">
 <defs>
  <style type="text/css">
   <![CDATA[
    .fil0 {fill:black}
   ]]>
  </style>
 </defs>
 <g id="Layer_x0020_1">
  <metadata id="CorelCorpID_0Corel-Layer"/>
  <path class="fil0" d="M5.26 10.03c-0.12,-0.52 -2,-1.73 -2.82,-1.09 -0.19,0.15 -0.28,0.52 -0.15,0.82 0.08,0.2 0.35,0.35 0.55,0.54 0.34,0.33 0.82,0.66 1.19,0.99 0.27,0.24 0.91,1.08 1.22,1.47l0.8 0.86c0.66,0.69 1.19,1.54 2.65,1.7 2.35,0.27 5.08,-1.65 4.36,-4.04 -0.17,-0.56 -0.31,-1.1 -0.48,-1.69 -0.3,-1.06 -0.42,-2.85 -1.15,-3.2 -0.26,-0.13 -0.63,-0.11 -0.86,0.05 -0.26,0.17 -0.32,0.41 -0.46,0.66 -0.11,-0.2 -0.14,-0.98 -0.96,-0.99 -0.83,-0 -0.88,0.79 -0.95,0.96 -0.2,-0.52 -0.33,-1.03 -1.03,-1 -0.74,0.03 -0.83,0.53 -0.86,1.25 -0.42,-0.95 -0.79,-2.08 -1.17,-3.08 -0.23,-0.6 -0.31,-1.16 -0.82,-1.36 -0.6,-0.23 -1.19,0.2 -1.23,0.76 -0.04,0.56 2.15,5.85 2.18,6.4zm-1.61 -8.66c-2.42,0.44 -2.93,3.22 -1.45,4.61 0.13,0.12 0.93,0.89 1.17,0.4 0.16,-0.32 -0.14,-0.42 -0.34,-0.53 -0.22,-0.12 -0.38,-0.27 -0.53,-0.44 -0.71,-0.82 -0.7,-2 0.05,-2.78 1.25,-1.31 3.13,-0.58 3.52,0.88 0.15,0.57 -0.17,1.42 0.08,1.58 0.54,0.36 0.63,-0.85 0.6,-1.23 -0.09,-1.51 -1.52,-2.79 -3.11,-2.49zm-0.73 6.48l0.07 -0.42c-0.21,-0.16 -0.64,-0.3 -0.91,-0.5 -2.52,-1.9 -1.53,-5.59 1.27,-6.19 1.86,-0.4 3.26,0.72 3.82,1.88 0.79,1.64 -0.04,2.65 0.13,3.01 0.09,0.19 0.35,0.25 0.5,0.08 0.12,-0.13 0.28,-0.89 0.31,-1.16 0.39,-3.45 -3.49,-5.82 -6.39,-3.77 -1,0.7 -2.01,2.23 -1.63,4.13 0.33,1.64 2,3.21 2.84,2.96z"/>
 </g>
</svg>
