<?xml version="1.0" encoding="UTF-8"?>
<!DOCTYPE svg PUBLIC "-//W3C//DTD SVG 1.0//EN" "http://www.w3.org/TR/2001/REC-SVG-20010904/DTD/svg10.dtd">
<!-- Creator: CorelDRAW 2018 (64-Bit) -->
<svg xmlns="http://www.w3.org/2000/svg" xml:space="preserve" width="0.870469in" height="1.01834in" version="1.0" style="shape-rendering:geometricPrecision; text-rendering:geometricPrecision; image-rendering:optimizeQuality; fill-rule:evenodd; clip-rule:evenodd"
viewBox="0 0 14.22 16.64"
 xmlns:xlink="http://www.w3.org/1999/xlink">
 <defs>
  <style type="text/css">
   <![CDATA[
    .str0 {stroke:black;stroke-width:0.6;stroke-miterlimit:22.9256}
    .fil1 {fill:none}
    .fil0 {fill:black}
   ]]>
  </style>
 </defs>
 <g id="Layer_x0020_1">
  <metadata id="CorelCorpID_0Corel-Layer"/>
  <path class="fil0" d="M4.47 1.69c-2.97,0.54 -3.59,3.94 -1.78,5.65 0.15,0.14 1.14,1.1 1.44,0.49 0.19,-0.39 -0.17,-0.52 -0.41,-0.65 -0.27,-0.15 -0.47,-0.33 -0.65,-0.53 -0.87,-1.01 -0.85,-2.45 0.06,-3.41 1.53,-1.6 3.84,-0.71 4.31,1.08 0.19,0.7 -0.2,1.74 0.1,1.94 0.67,0.44 0.77,-1.05 0.74,-1.5 -0.11,-1.85 -1.86,-3.41 -3.82,-3.06zm-0.89 7.94l0.09 -0.51c-0.25,-0.2 -0.79,-0.37 -1.12,-0.62 -3.09,-2.32 -1.88,-6.85 1.55,-7.59 2.28,-0.49 3.99,0.88 4.68,2.3 0.97,2 -0.04,3.25 0.15,3.68 0.11,0.24 0.42,0.3 0.62,0.09 0.15,-0.16 0.35,-1.1 0.38,-1.42 0.48,-4.22 -4.28,-7.13 -7.83,-4.62 -1.22,0.86 -2.46,2.73 -2,5.06 0.4,2.01 2.45,3.93 3.47,3.62z"/>
  <path class="fil1 str0" d="M6.24 11.02l-0.2 -0.2c-0.55,-0.55 -1.76,-1.07 -2.35,-0.6 -0.18,0.14 -0.27,0.5 -0.15,0.78 0.08,0.19 0.33,0.34 0.52,0.52 0.32,0.31 0.78,0.63 1.13,0.95 0.26,0.23 0.87,1.03 1.17,1.4l0.76 0.82c0.63,0.66 1.13,1.47 2.53,1.63 2.24,0.26 4.85,-1.57 4.16,-3.85 -0.16,-0.54 -0.3,-1.05 -0.46,-1.61 -0.29,-1.01 -0.4,-2.72 -1.09,-3.06 -0.25,-0.13 -0.6,-0.1 -0.82,0.04 -0.25,0.16 -0.3,0.39 -0.43,0.63 -0.1,-0.2 -0.14,-0.94 -0.92,-0.94 -0.79,-0 -0.84,0.75 -0.91,0.92 -0.19,-0.5 -0.31,-0.98 -0.98,-0.96 -0.71,0.02 -0.79,0.5 -0.82,1.19 -0.4,-0.91 -0.75,-1.98 -1.12,-2.94 -0.22,-0.57 -0.3,-1.11 -0.79,-1.3 -0.58,-0.22 -1.14,0.19 -1.18,0.72 -0.04,0.54 1.91,5.34 1.94,5.87z"/>
 </g>
</svg>
