<?xml version="1.0" encoding="UTF-8"?>
<!DOCTYPE svg PUBLIC "-//W3C//DTD SVG 1.0//EN" "http://www.w3.org/TR/2001/REC-SVG-20010904/DTD/svg10.dtd">
<!-- Creator: CorelDRAW 2018 (64-Bit) -->
<svg xmlns="http://www.w3.org/2000/svg" xml:space="preserve" width="1in" height="1.00154in" version="1.0" style="shape-rendering:geometricPrecision; text-rendering:geometricPrecision; image-rendering:optimizeQuality; fill-rule:evenodd; clip-rule:evenodd"
viewBox="0 0 19.46 19.49"
 xmlns:xlink="http://www.w3.org/1999/xlink">
 <defs>
  <style type="text/css">
   <![CDATA[
    .fil0 {fill:black}
   ]]>
  </style>
 </defs>
 <g id="Layer_x0020_1">
  <metadata id="CorelCorpID_0Corel-Layer"/>
  <path class="fil0" d="M11.6 14.67c-2.64,-1.03 -5.57,-4.05 -6.66,-6.66 0.43,-0.56 2.02,-1.72 2.27,-2.25 0.66,-1.38 -0.77,-2.46 -1.28,-2.98 -1.11,-1.11 -2.58,-3.19 -4.14,-2.54 -0.53,0.22 -0.77,0.76 -1.03,1.34 -2.33,5.21 1.31,10.99 3.71,13.45 1.36,1.4 3.57,2.91 5.52,3.65 4.26,1.63 10.82,0.78 9.24,-2.43 -0.34,-0.69 -1.71,-1.87 -2.24,-2.4 -0.52,-0.52 -1.61,-2.04 -3.06,-1.48 -0.55,0.21 -1.73,1.81 -2.32,2.3zm5.13 -7.13l-1.67 -1.81 4.04 -4.02 -1.6 -1.71 -4.17 4.04 -1.77 -1.67 -1.88 7.05 7.05 -1.88z"/>
 </g>
</svg>
