<?xml version="1.0" encoding="UTF-8"?>
<!DOCTYPE svg PUBLIC "-//W3C//DTD SVG 1.0//EN" "http://www.w3.org/TR/2001/REC-SVG-20010904/DTD/svg10.dtd">
<!-- Creator: CorelDRAW 2018 (64-Bit) -->
<svg xmlns="http://www.w3.org/2000/svg" xml:space="preserve" width="1.05313in" height="1.06615in" version="1.0" style="shape-rendering:geometricPrecision; text-rendering:geometricPrecision; image-rendering:optimizeQuality; fill-rule:evenodd; clip-rule:evenodd"
viewBox="0 0 17.01 17.22"
 xmlns:xlink="http://www.w3.org/1999/xlink">
 <defs>
  <style type="text/css">
   <![CDATA[
    .str0 {stroke:black;stroke-width:0.86;stroke-miterlimit:22.9256}
    .fil0 {fill:none}
   ]]>
  </style>
 </defs>
 <g id="Layer_x0020_1">
  <metadata id="CorelCorpID_0Corel-Layer"/>
  <path class="fil0 str0" d="M10.05 12.79c-2.19,-0.86 -4.62,-3.36 -5.53,-5.53 0.36,-0.46 1.67,-1.43 1.88,-1.86 0.55,-1.15 -0.64,-2.04 -1.06,-2.47 -0.92,-0.92 -2.14,-2.65 -3.43,-2.11 -0.44,0.18 -0.64,0.63 -0.86,1.11 -1.93,4.32 1.09,9.12 3.08,11.16 1.13,1.16 2.96,2.41 4.58,3.03 3.54,1.35 8.98,0.65 7.67,-2.02 -0.28,-0.58 -1.42,-1.56 -1.86,-2 -0.43,-0.43 -1.34,-1.7 -2.54,-1.23 -0.46,0.18 -1.43,1.5 -1.92,1.91zm4.26 -5.92l-1.39 -1.5 3.35 -3.34 -1.33 -1.42 -3.46 3.35 -1.47 -1.39 -1.56 5.85 5.85 -1.56z"/>
 </g>
</svg>
