<?xml version="1.0" encoding="UTF-8"?>
<!DOCTYPE svg PUBLIC "-//W3C//DTD SVG 1.0//EN" "http://www.w3.org/TR/2001/REC-SVG-20010904/DTD/svg10.dtd">
<!-- Creator: CorelDRAW 2018 (64-Bit) -->
<svg xmlns="http://www.w3.org/2000/svg" xml:space="preserve" width="1in" height="0.875894in" version="1.0" style="shape-rendering:geometricPrecision; text-rendering:geometricPrecision; image-rendering:optimizeQuality; fill-rule:evenodd; clip-rule:evenodd"
viewBox="0 0 16.44 14.4"
 xmlns:xlink="http://www.w3.org/1999/xlink">
 <defs>
  <style type="text/css">
   <![CDATA[
    .fil0 {fill:black}
   ]]>
  </style>
 </defs>
 <g id="Layer_x0020_1">
  <metadata id="CorelCorpID_0Corel-Layer"/>
  <path class="fil0" d="M11.29 10.72c-0.03,0.51 -0.1,1.05 -0.15,1.56 -0.07,0.74 -0.01,0.83 0.59,1.07 0.82,0.33 1.64,0.66 2.46,0.99 0.6,0.24 0.79,-0.26 1,-0.59 0.23,-0.36 0.43,-0.71 0.66,-1.06 0.18,-0.27 0.6,-0.83 0.58,-1.15 -0.02,-0.26 -0.2,-0.41 -0.33,-0.52l-0.45 -0.42c-1.27,-1.12 -2.85,-1.92 -4.5,-2.38 -3.47,-0.96 -7.28,-0.09 -10.04,2.11l-0.91 0.82c-0.43,0.45 -0.08,0.8 0.16,1.18l1 1.6c0.34,0.53 0.49,0.58 1.1,0.33 0.82,-0.33 1.63,-0.65 2.45,-0.98 0.57,-0.23 0.44,-0.61 0.38,-1.24l-0.12 -1.17c-0.02,-0.2 0.01,-0.15 0.2,-0.22 1.47,-0.48 3.01,-0.6 4.57,-0.3 0.5,0.1 0.9,0.24 1.35,0.37zm0.74 -9.23l-3.45 3.44c-0.72,-0.43 -5.69,-4.5 -6.03,-4.52 -0.24,-0.01 -0.32,0.19 -0.44,0.34 -0.41,0.54 -0.36,0.53 0.44,1.12 0.26,0.2 0.46,0.37 0.72,0.55l2.89 2.22c0.35,0.27 2.03,1.64 2.4,1.76 0.14,0.05 0.1,0.05 0.22,0.1 0.2,0.07 0.35,0.05 0.49,-0.08 0.54,-0.51 3.6,-3.69 3.87,-3.84 0,0.91 -0.04,1.85 -0.07,2.77 -0.02,0.57 0.02,0.81 0.61,0.82 0.51,0 0.89,0.04 0.91,-0.54l-0 -4.21c0,-1.7 0.29,-1.39 -2.85,-1.39 -3.18,0 -3.3,-0.34 -3.29,0.94 0,0.6 0.29,0.58 0.85,0.57 0.81,-0.02 1.96,-0.11 2.74,-0.05z"/>
 </g>
</svg>
