<?xml version="1.0" encoding="UTF-8"?>
<!DOCTYPE svg PUBLIC "-//W3C//DTD SVG 1.0//EN" "http://www.w3.org/TR/2001/REC-SVG-20010904/DTD/svg10.dtd">
<!-- Creator: CorelDRAW 2018 (64-Bit) -->
<svg xmlns="http://www.w3.org/2000/svg" xml:space="preserve" width="1.05333in" height="0.929213in" version="1.0" style="shape-rendering:geometricPrecision; text-rendering:geometricPrecision; image-rendering:optimizeQuality; fill-rule:evenodd; clip-rule:evenodd"
viewBox="0 0 18.51 16.33"
 xmlns:xlink="http://www.w3.org/1999/xlink">
 <defs>
  <style type="text/css">
   <![CDATA[
    .str0 {stroke:black;stroke-width:0.94;stroke-miterlimit:2.61313}
    .fil0 {fill:none}
   ]]>
  </style>
 </defs>
 <g id="Layer_x0020_1">
  <metadata id="CorelCorpID_0Corel-Layer"/>
  <path class="fil0 str0" d="M12.53 11.93c-0.03,0.55 -0.11,1.12 -0.16,1.66 -0.08,0.79 -0.01,0.88 0.63,1.14 0.88,0.35 1.75,0.7 2.63,1.05 0.64,0.26 0.84,-0.28 1.07,-0.64 0.25,-0.38 0.46,-0.76 0.71,-1.13 0.19,-0.29 0.64,-0.89 0.62,-1.22 -0.02,-0.27 -0.22,-0.44 -0.35,-0.55l-0.48 -0.45c-1.35,-1.19 -3.04,-2.05 -4.81,-2.54 -3.71,-1.03 -7.78,-0.1 -10.74,2.26l-0.97 0.87c-0.46,0.48 -0.08,0.85 0.17,1.26l1.07 1.71c0.36,0.56 0.52,0.62 1.18,0.35 0.88,-0.35 1.74,-0.69 2.61,-1.05 0.61,-0.25 0.47,-0.65 0.41,-1.32l-0.13 -1.25c-0.02,-0.21 0.01,-0.16 0.21,-0.23 1.58,-0.51 3.22,-0.64 4.89,-0.32 0.54,0.1 0.96,0.25 1.44,0.39zm0.79 -9.86l-3.69 3.68c-0.77,-0.46 -6.08,-4.81 -6.44,-4.83 -0.25,-0.01 -0.34,0.2 -0.47,0.37 -0.43,0.58 -0.38,0.56 0.47,1.2 0.28,0.21 0.49,0.39 0.77,0.59l3.09 2.37c0.37,0.29 2.17,1.75 2.56,1.88 0.15,0.05 0.11,0.06 0.24,0.1 0.21,0.08 0.37,0.05 0.52,-0.09 0.58,-0.55 3.85,-3.95 4.13,-4.1 0,0.98 -0.04,1.98 -0.07,2.97 -0.02,0.61 0.02,0.87 0.65,0.87 0.54,0 0.96,0.04 0.97,-0.58l-0 -4.5c0,-1.82 0.31,-1.49 -3.04,-1.49 -3.39,0 -3.53,-0.37 -3.52,1.01 0,0.64 0.31,0.62 0.91,0.6 0.86,-0.02 2.1,-0.12 2.93,-0.06z"/>
 </g>
</svg>
