<?xml version="1.0" encoding="UTF-8"?>
<!DOCTYPE svg PUBLIC "-//W3C//DTD SVG 1.0//EN" "http://www.w3.org/TR/2001/REC-SVG-20010904/DTD/svg10.dtd">
<!-- Creator: CorelDRAW 2018 (64-Bit) -->
<svg xmlns="http://www.w3.org/2000/svg" xml:space="preserve" width="0.974638in" height="1in" version="1.0" style="shape-rendering:geometricPrecision; text-rendering:geometricPrecision; image-rendering:optimizeQuality; fill-rule:evenodd; clip-rule:evenodd"
viewBox="0 0 16.52 16.95"
 xmlns:xlink="http://www.w3.org/1999/xlink">
 <defs>
  <style type="text/css">
   <![CDATA[
    .fil0 {fill:black}
   ]]>
  </style>
 </defs>
 <g id="Layer_x0020_1">
  <metadata id="CorelCorpID_0Corel-Layer"/>
  <path class="fil0" d="M1.11 6.8c-0.05,-0.87 0.13,-1.5 0.36,-2.18 1.05,-3.08 5.55,-4.89 8.68,-2.09 2.76,2.47 2.4,6.86 -0.97,8.78 -2.58,1.47 -5.88,0.64 -7.47,-2.27 -0.33,-0.61 -0.55,-1.36 -0.6,-2.24zm-1.1 -0.05c0.15,2.74 1.63,4.84 3.88,5.81 2.36,1.01 4.43,0.61 6.54,-0.66 0.53,0.31 1.09,1.11 1.54,1.54 0.24,0.23 0.32,0.4 0.55,0.55 -0.29,0.69 -0.35,0.36 0.77,1.69 0.26,0.24 0.32,0.37 0.59,0.63 0.24,0.23 0.29,0.43 0.65,0.56 0.68,0.25 0.81,-0.1 1.49,-0.69 0.85,-0.74 0.49,-1.24 -0.11,-1.91l-0.75 -0.79c-0.22,-0.21 -0.17,-0.17 -0.37,-0.4 -0.43,-0.35 -0.22,-0.41 -1.01,-0.37 -0.28,-0.38 -0.69,-0.71 -1.01,-1.09 -0.35,-0.42 -0.68,-0.7 -0.99,-1.11l0.14 -0.19c1.7,-2.29 1.55,-5.56 -0.25,-7.85 -0.64,-0.81 -1.64,-1.59 -2.61,-1.98 -2.94,-1.2 -6.28,-0.11 -8.01,2.51 -0.7,1.07 -1.12,2.36 -1.05,3.76z"/>
  <path class="fil0" d="M4.47 3.86c-0.17,0.97 -0.02,1.79 0.4,2.7 0.5,1.09 1.28,2.08 2.35,2.62 0.86,0.43 0.73,0.53 1.36,-0.18 0.25,-0.28 0.35,-0.28 0.43,-0.66 -0.5,-0.1 -1,-0.72 -1.14,-0.71 -0.65,0.04 -0.82,0.86 -1.72,-0.53 -0.63,-0.98 -1.17,-1.47 -0.08,-2.12 -0.02,-0.45 -0.2,-1.15 -0.3,-1.53 -0.44,0.13 -0.86,0.27 -1.3,0.4z"/>
  <path class="fil0" d="M12.7 3.29c0,0.03 0.01,0.05 0.01,0.08 0.05,0.32 0.15,0.49 0.27,0.78 0.14,0.35 0.17,0.4 0.27,0.87 0.35,1.63 0.18,3.27 -0.59,4.71l-0.44 0.75c0.52,0.69 0.71,0.68 0.83,1.06l0.33 -0.02c0.12,-0.59 1.23,-1.6 1.09,-4.25 -0.06,-1.11 -0.51,-2.33 -1.1,-3.2l-0.66 -0.78z"/>
  <path class="fil0" d="M4.22 13.13c0.56,0.68 2.38,1.1 3.3,1.21 0.71,0.09 1.5,-0.07 2.11,-0.23 0.34,-0.09 0.67,-0.22 0.92,-0.32 0.37,-0.15 0.47,-0.28 0.84,-0.39 -0.22,-0.36 -0.13,-0.26 -0.44,-0.55 -0.21,-0.19 -0.28,-0.35 -0.5,-0.5 -0.46,0.13 -1.57,0.93 -2.8,1.04 -2.71,0.25 -2.31,-0.22 -3.43,-0.25z"/>
 </g>
</svg>
