<?xml version="1.0" encoding="UTF-8"?>
<!DOCTYPE svg PUBLIC "-//W3C//DTD SVG 1.0//EN" "http://www.w3.org/TR/2001/REC-SVG-20010904/DTD/svg10.dtd">
<!-- Creator: CorelDRAW 2018 (64-Bit) -->
<svg xmlns="http://www.w3.org/2000/svg" xml:space="preserve" width="1in" height="0.995457in" version="1.0" style="shape-rendering:geometricPrecision; text-rendering:geometricPrecision; image-rendering:optimizeQuality; fill-rule:evenodd; clip-rule:evenodd"
viewBox="0 0 16.37 16.3"
 xmlns:xlink="http://www.w3.org/1999/xlink">
 <defs>
  <style type="text/css">
   <![CDATA[
    .fil0 {fill:black}
   ]]>
  </style>
 </defs>
 <g id="Layer_x0020_1">
  <metadata id="CorelCorpID_0Corel-Layer"/>
  <path class="fil0" d="M9.76 12.24c-2.22,-0.87 -4.69,-3.4 -5.61,-5.61 0.36,-0.47 1.7,-1.45 1.91,-1.89 0.56,-1.16 -0.64,-2.07 -1.08,-2.5 -0.94,-0.94 -2.17,-2.68 -3.48,-2.14 -0.45,0.19 -0.65,0.64 -0.87,1.13 -1.96,4.38 1.1,9.25 3.12,11.32 1.15,1.18 3,2.45 4.65,3.07 3.59,1.37 9.1,0.65 7.77,-2.05 -0.29,-0.58 -1.44,-1.58 -1.89,-2.02 -0.43,-0.43 -1.35,-1.72 -2.58,-1.25 -0.46,0.18 -1.45,1.52 -1.95,1.94zm0.64 -10.6c0.13,0.31 1.08,1.19 1.36,1.43 -0.29,0.62 -2.68,2.59 -3.35,3.47 0.11,0.36 1.04,1.2 1.35,1.44 0.64,-0.21 2.8,-3 3.56,-3.34 0.25,0.29 1.09,1.21 1.43,1.35 0.23,-0.29 1.64,-5.65 1.58,-5.93 -0.33,-0.08 -5.58,1.3 -5.93,1.58z"/>
 </g>
</svg>
