<?xml version="1.0" encoding="UTF-8"?>
<!DOCTYPE svg PUBLIC "-//W3C//DTD SVG 1.0//EN" "http://www.w3.org/TR/2001/REC-SVG-20010904/DTD/svg10.dtd">
<!-- Creator: CorelDRAW 2018 (64-Bit) -->
<svg xmlns="http://www.w3.org/2000/svg" xml:space="preserve" width="1.05313in" height="1.04871in" version="1.0" style="shape-rendering:geometricPrecision; text-rendering:geometricPrecision; image-rendering:optimizeQuality; fill-rule:evenodd; clip-rule:evenodd"
viewBox="0 0 18.15 18.07"
 xmlns:xlink="http://www.w3.org/1999/xlink">
 <defs>
  <style type="text/css">
   <![CDATA[
    .str0 {stroke:black;stroke-width:0.92;stroke-miterlimit:22.9256}
    .fil0 {fill:none}
   ]]>
  </style>
 </defs>
 <g id="Layer_x0020_1">
  <metadata id="CorelCorpID_0Corel-Layer"/>
  <path class="fil0 str0" d="M10.72 13.34c-2.34,-0.92 -4.93,-3.58 -5.9,-5.9 0.38,-0.49 1.78,-1.52 2.01,-1.99 0.59,-1.23 -0.68,-2.18 -1.13,-2.64 -0.99,-0.99 -2.29,-2.82 -3.66,-2.25 -0.47,0.2 -0.68,0.67 -0.91,1.19 -2.06,4.61 1.16,9.73 3.29,11.91 1.21,1.24 3.16,2.57 4.89,3.23 3.78,1.44 9.58,0.69 8.18,-2.15 -0.3,-0.61 -1.52,-1.66 -1.98,-2.13 -0.46,-0.46 -1.43,-1.81 -2.71,-1.31 -0.49,0.19 -1.53,1.6 -2.05,2.04zm0.67 -11.16c0.14,0.33 1.14,1.25 1.43,1.51 -0.31,0.65 -2.82,2.72 -3.52,3.65 0.12,0.38 1.09,1.27 1.42,1.51 0.68,-0.22 2.95,-3.16 3.75,-3.52 0.27,0.31 1.15,1.28 1.51,1.42 0.24,-0.31 1.73,-5.94 1.66,-6.24 -0.35,-0.08 -5.87,1.37 -6.24,1.66z"/>
 </g>
</svg>
