<?xml version="1.0" encoding="UTF-8"?>
<!DOCTYPE svg PUBLIC "-//W3C//DTD SVG 1.0//EN" "http://www.w3.org/TR/2001/REC-SVG-20010904/DTD/svg10.dtd">
<!-- Creator: CorelDRAW 2018 (64-Bit) -->
<svg xmlns="http://www.w3.org/2000/svg" xml:space="preserve" width="0.999996in" height="0.999996in" version="1.0" style="shape-rendering:geometricPrecision; text-rendering:geometricPrecision; image-rendering:optimizeQuality; fill-rule:evenodd; clip-rule:evenodd"
viewBox="0 0 19.99 19.99"
 xmlns:xlink="http://www.w3.org/1999/xlink">
 <defs>
  <style type="text/css">
   <![CDATA[
    .fil0 {fill:black}
    .fil2 {fill:#B3B3B3;fill-opacity:0.850980}
    .fil1 {fill:#B3B3B3;fill-opacity:0.870588}
   ]]>
  </style>
 </defs>
 <g id="Layer_x0020_1">
  <metadata id="CorelCorpID_0Corel-Layer"/>
  <path class="fil0" d="M1.48 10.28c0.01,0.07 0.02,0.14 0.03,0.21 0.02,0.19 0.02,0.26 0.19,0.38 0.09,0.08 0.35,0.37 0.49,0.49 0.05,0.04 0.07,0.06 0.12,0.1 0.35,0.3 0.87,0.64 1.33,0.85 1.03,0.47 1.71,0.55 2.96,0.55 1.74,0 3.49,0 5.23,0 0.58,0 1.1,0.01 1.66,-0.1 3.35,-0.62 5.35,-3.91 5.04,-7.13 -0.01,-0.13 -0.03,-0.26 -0.05,-0.39 -0.04,-0.3 -0.04,-0.23 -0.32,-0.54l-0.17 -0.17c-0.04,-0.04 -0.03,-0.02 -0.06,-0.07 -0.06,-0.04 -0.17,-0.15 -0.24,-0.21 -0.24,-0.2 -0.53,-0.41 -0.81,-0.57 -1.59,-0.95 -2.9,-0.82 -4.72,-0.82 -1.23,0 -2.47,0 -3.7,0 -0.59,0 -1.2,-0.02 -1.78,0.06 -3.82,0.58 -5.61,3.79 -5.21,7.36z"/>
  <path class="fil1" d="M1.64 10.82c0.13,0.53 0.37,1.11 0.62,1.53 0.19,0.33 0.41,0.67 0.65,0.95l1.3 1.36c0.17,0.18 0.33,0.38 0.52,0.54 0.18,0.16 0.34,0.39 0.52,0.54 0.19,0.16 0.34,0.37 0.52,0.54l0.79 0.81c0.09,0.1 0.17,0.18 0.26,0.27l1.84 1.89c0.14,0.15 0.5,0.56 0.68,0.66 0.07,0.04 0.13,0.04 0.19,0.07l0.16 0c0.08,-0.04 0.14,-0.03 0.22,-0.09 0.24,-0.16 0.3,-0.34 0.3,-0.64l-0 -2.53c0,-0.4 -0.02,-0.88 0,-1.26 0.66,0 1.31,0 1.97,0 0.64,0 1.31,0.02 1.95,-0.01 1.14,-0.05 2.19,-0.43 2.97,-0.95 0.21,-0.13 0.81,-0.58 0.97,-0.77 0.05,-0.06 0.06,-0.06 0.12,-0.11l0.24 -0.26c0.07,-0.09 0.14,-0.17 0.22,-0.27 0.68,-0.86 1.15,-1.99 1.29,-3.11 0.02,-0.13 0.01,-0.33 0.05,-0.44l0 -0.78c-0.04,-0.09 -0.06,-0.49 -0.08,-0.63 -0.09,-0.56 -0.24,-1.08 -0.46,-1.59 -0.14,-0.31 -0.31,-0.65 -0.48,-0.9 -0.16,-0.23 -0.26,-0.38 -0.44,-0.59 -0.04,-0.05 -0.12,-0.13 -0.14,-0.19 -0.15,-0.09 -0.28,-0.31 -0.44,-0.42 0.03,0.05 0.02,0.03 0.06,0.07l0.17 0.17c0.28,0.31 0.28,0.25 0.32,0.54 0.02,0.13 0.03,0.25 0.05,0.39 0.3,3.22 -1.69,6.51 -5.04,7.13 -0.57,0.11 -1.08,0.1 -1.66,0.1 -1.74,0 -3.49,0 -5.23,0 -1.25,0 -1.93,-0.08 -2.96,-0.55 -0.46,-0.21 -0.98,-0.55 -1.33,-0.85 -0.05,-0.04 -0.07,-0.06 -0.12,-0.1 -0.14,-0.12 -0.4,-0.41 -0.49,-0.49l-0.06 -0.04z"/>
  <path class="fil2" d="M-0 6.1l0 0.56c0.03,0.11 0.04,0.48 0.06,0.64 0.03,0.2 0.06,0.39 0.1,0.58 0.26,1.18 0.67,1.87 1.36,2.79 0.01,-0.02 0.01,-0 0.01,-0.04l-0.02 -0.15c-0.01,-0.07 -0.02,-0.14 -0.03,-0.21 -0.03,-0.28 -0.05,-0.57 -0.05,-0.85 -0,-0.13 0.02,-0.33 0,-0.45 -0.02,-0.23 0.07,-0.84 0.12,-1.07 0.18,-0.9 0.56,-1.79 1.06,-2.48 0.37,-0.51 0.65,-0.8 1.15,-1.22 0.8,-0.68 1.88,-1.13 2.93,-1.29 0.58,-0.09 1.18,-0.06 1.78,-0.06 1.23,0 2.47,0 3.7,0 1.82,0 3.13,-0.13 4.72,0.82 0.28,0.17 0.57,0.37 0.81,0.57 0.07,0.06 0.18,0.17 0.24,0.21 0.17,0.11 0.3,0.33 0.44,0.42 -0.17,-0.9 -0.74,-1.97 -1.29,-2.64l-0.3 -0.35c-0.07,-0.06 -0.11,-0.1 -0.17,-0.16 -0.19,-0.18 -0.29,-0.28 -0.52,-0.46 -0.8,-0.61 -1.69,-1.03 -2.71,-1.19 -0.13,-0.02 -0.49,-0.04 -0.58,-0.07l-7.05 0c-0.14,0.06 -1.15,0.02 -2.32,0.65 -0.8,0.42 -1.29,0.84 -1.86,1.48 -0.78,0.89 -1.32,2.12 -1.49,3.31 -0.02,0.12 -0.05,0.6 -0.07,0.66z"/>
 </g>
</svg>
