<?xml version="1.0" encoding="UTF-8"?>
<!DOCTYPE svg PUBLIC "-//W3C//DTD SVG 1.0//EN" "http://www.w3.org/TR/2001/REC-SVG-20010904/DTD/svg10.dtd">
<!-- Creator: CorelDRAW 2018 (64-Bit) -->
<svg xmlns="http://www.w3.org/2000/svg" xml:space="preserve" width="1.05333in" height="1.05333in" version="1.0" style="shape-rendering:geometricPrecision; text-rendering:geometricPrecision; image-rendering:optimizeQuality; fill-rule:evenodd; clip-rule:evenodd"
viewBox="0 0 22.16 22.16"
 xmlns:xlink="http://www.w3.org/1999/xlink">
 <defs>
  <style type="text/css">
   <![CDATA[
    .str2 {stroke:black;stroke-width:1.12;stroke-miterlimit:22.9256;stroke-opacity:0.850980}
    .str1 {stroke:black;stroke-width:1.12;stroke-miterlimit:22.9256;stroke-opacity:0.870588}
    .str0 {stroke:#1A1A1A;stroke-width:1.12;stroke-miterlimit:22.9256}
    .fil0 {fill:none}
    .fil2 {fill:none}
    .fil1 {fill:none}
   ]]>
  </style>
 </defs>
 <g id="Layer_x0020_1">
  <metadata id="CorelCorpID_0Corel-Layer"/>
  <path class="fil0 str0" d="M2.12 11.38c0.01,0.07 0.02,0.15 0.03,0.22 0.03,0.2 0.02,0.27 0.2,0.4 0.1,0.09 0.37,0.39 0.52,0.52 0.05,0.04 0.07,0.06 0.12,0.11 0.37,0.32 0.92,0.68 1.4,0.9 1.08,0.49 1.8,0.58 3.11,0.58 1.83,0 3.67,0 5.5,0 0.61,0 1.15,0.01 1.75,-0.1 3.52,-0.65 5.63,-4.11 5.31,-7.51 -0.01,-0.14 -0.03,-0.27 -0.05,-0.41 -0.04,-0.31 -0.04,-0.24 -0.34,-0.57l-0.18 -0.17c-0.04,-0.04 -0.03,-0.02 -0.06,-0.07 -0.06,-0.04 -0.18,-0.16 -0.26,-0.22 -0.25,-0.21 -0.56,-0.43 -0.85,-0.6 -1.68,-1 -3.05,-0.86 -4.97,-0.86 -1.3,0 -2.59,0 -3.89,0 -0.62,0 -1.26,-0.03 -1.87,0.07 -4.02,0.61 -5.9,3.99 -5.48,7.74z"/>
  <path class="fil1 str1" d="M2.29 11.95c0.14,0.56 0.39,1.17 0.65,1.61 0.2,0.34 0.43,0.7 0.68,1l1.37 1.43c0.18,0.19 0.35,0.4 0.55,0.57 0.19,0.16 0.36,0.42 0.55,0.57 0.2,0.17 0.36,0.39 0.55,0.57l0.83 0.85c0.1,0.1 0.18,0.19 0.27,0.29l1.94 1.99c0.15,0.16 0.53,0.59 0.71,0.69 0.07,0.04 0.14,0.04 0.2,0.07l0.17 0c0.08,-0.04 0.15,-0.03 0.24,-0.09 0.25,-0.17 0.31,-0.36 0.31,-0.68l-0 -2.66c0,-0.42 -0.03,-0.92 0,-1.33 0.69,0 1.38,0 2.07,0 0.67,0 1.38,0.02 2.05,-0.01 1.2,-0.05 2.3,-0.46 3.12,-0.99 0.22,-0.14 0.85,-0.61 1.02,-0.81 0.05,-0.06 0.07,-0.06 0.13,-0.12l0.25 -0.28c0.08,-0.09 0.15,-0.18 0.23,-0.28 0.72,-0.9 1.21,-2.1 1.36,-3.27 0.02,-0.14 0.01,-0.35 0.06,-0.46l0 -0.82c-0.04,-0.1 -0.06,-0.51 -0.08,-0.66 -0.09,-0.59 -0.25,-1.14 -0.49,-1.67 -0.14,-0.32 -0.33,-0.68 -0.51,-0.94 -0.17,-0.25 -0.28,-0.4 -0.46,-0.63 -0.04,-0.05 -0.12,-0.14 -0.15,-0.2 -0.15,-0.09 -0.29,-0.33 -0.47,-0.44 0.03,0.05 0.02,0.03 0.06,0.07l0.18 0.17c0.3,0.33 0.3,0.26 0.34,0.57 0.02,0.14 0.03,0.27 0.05,0.41 0.32,3.39 -1.78,6.85 -5.31,7.51 -0.6,0.11 -1.13,0.1 -1.75,0.1 -1.83,0 -3.67,0 -5.5,0 -1.31,0 -2.03,-0.08 -3.11,-0.58 -0.48,-0.22 -1.03,-0.58 -1.4,-0.9 -0.05,-0.04 -0.07,-0.07 -0.12,-0.11 -0.15,-0.12 -0.42,-0.43 -0.52,-0.52l-0.06 -0.04z"/>
  <path class="fil2 str2" d="M0.56 6.98l0 0.59c0.03,0.11 0.04,0.51 0.06,0.67 0.03,0.21 0.06,0.41 0.11,0.61 0.28,1.24 0.7,1.97 1.43,2.94 0.01,-0.02 0.01,-0 0.01,-0.04l-0.02 -0.15c-0.01,-0.07 -0.02,-0.14 -0.03,-0.22 -0.04,-0.29 -0.05,-0.6 -0.05,-0.89 -0,-0.14 0.03,-0.35 0,-0.47 -0.02,-0.24 0.08,-0.88 0.13,-1.13 0.18,-0.94 0.59,-1.88 1.12,-2.61 0.39,-0.53 0.68,-0.84 1.2,-1.28 0.85,-0.72 1.98,-1.19 3.08,-1.36 0.61,-0.09 1.25,-0.07 1.87,-0.07 1.3,0 2.59,0 3.89,0 1.92,0 3.29,-0.14 4.97,0.86 0.29,0.17 0.6,0.39 0.85,0.6 0.08,0.07 0.19,0.18 0.26,0.22 0.18,0.11 0.31,0.35 0.47,0.44 -0.18,-0.94 -0.78,-2.07 -1.36,-2.78l-0.32 -0.37c-0.07,-0.07 -0.12,-0.11 -0.18,-0.17 -0.2,-0.19 -0.3,-0.3 -0.55,-0.49 -0.84,-0.65 -1.78,-1.08 -2.85,-1.25 -0.14,-0.02 -0.52,-0.04 -0.61,-0.08l-7.42 0c-0.15,0.06 -1.21,0.03 -2.45,0.68 -0.84,0.45 -1.36,0.88 -1.96,1.56 -0.82,0.93 -1.39,2.23 -1.57,3.48 -0.02,0.13 -0.05,0.63 -0.08,0.69z"/>
 </g>
</svg>
