<?xml version="1.0" encoding="UTF-8"?>
<!DOCTYPE svg PUBLIC "-//W3C//DTD SVG 1.0//EN" "http://www.w3.org/TR/2001/REC-SVG-20010904/DTD/svg10.dtd">
<!-- Creator: CorelDRAW 2018 (64-Bit) -->
<svg xmlns="http://www.w3.org/2000/svg" xml:space="preserve" width="1in" height="0.980559in" version="1.0" style="shape-rendering:geometricPrecision; text-rendering:geometricPrecision; image-rendering:optimizeQuality; fill-rule:evenodd; clip-rule:evenodd"
viewBox="0 0 17.13 16.8"
 xmlns:xlink="http://www.w3.org/1999/xlink">
 <defs>
  <style type="text/css">
   <![CDATA[
    .fil0 {fill:black}
   ]]>
  </style>
 </defs>
 <g id="Layer_x0020_1">
  <metadata id="CorelCorpID_0Corel-Layer"/>
  <path class="fil0" d="M7.22 8.02c-0.15,0.08 -0.87,0.02 -1.08,0.04l-0.05 -0.01c0,0.05 0.01,0.03 -0.05,0.03l-0.02 0c0,0.05 0.01,0.04 -0.04,0.04l-0.1 0.1c0,0.05 0.01,0.04 -0.04,0.04l-0 0.03 -0.03 0.05 0.01 0.04 -0.01 0.72 -0.06 -0.05c-0.05,0.01 -0.04,0.02 -0.04,-0.03l-0.06 -0.03 -0.03 -0.04 -0.04 -0.03 -0.06 -0.03 -0.03 -0.04 -0.04 -0.03 -0.06 -0.03 -0.03 -0.04 -0.04 -0.03 -0.06 -0.03 -0.03 -0.04 -0.04 -0.03 -0.06 -0.03 -0.03 -0.04 -0.04 -0.03 -0.06 -0.03 -0.03 -0.04 -0.04 -0.03 -0.06 -0.03 -0.03 -0.04 -0.04 -0.03 -0.06 -0.03 -0.03 -0.04 -0.04 -0.03 -0.06 -0.03 -0.03 -0.04 -0.04 -0.03 -0.03 0 -0.05 -0.03 -0.06 -0 -3.09 -0c-0.18,0 -0.35,0.04 -0.41,-0.04 -0.1,-0.13 -0.03,-2.19 -0.03,-2.54l0.03 -2.51c0.07,-0.07 5.78,-0.04 6.35,-0.03 0.05,-0 0.04,-0.01 0.03,0.04 0.1,0.12 0.04,2.17 0.04,2.5l-0.03 2.52 -0.02 0.03zm-5.42 -2.16l-0.03 0 -0.04 0.04 -0.07 0.06 -0.03 0.04 -0.03 0.04 -0 0.03 -0 0.03 -0.03 0.04 0 0.19 0.03 0.06 0 0.03 0.03 0.04 0.14 0.13 0.04 0.03 0.06 -0 3.57 0 0.06 0c0,-0.05 -0.01,-0.03 0.04,-0.03l0.03 -0 0.04 -0.03 0.03 -0.03 0.03 -0.03 0.03 -0.04 0 -0.03 0.03 -0.04 0 -0.05 -0 -0.17c-0.03,-0.14 -0.06,-0.2 -0.16,-0.25 -0.05,-0 -0.04,0.01 -0.04,-0.04l-0.02 -0c-0.06,0.01 -0.05,0.02 -0.05,-0.03l-0.05 0.01 -3.53 0 -0.05 -0.01 -0.05 0.03zm9.01 5.79l-0.1 0.03 -0.03 0.04 -0.07 0.07 -0.04 0.03 -0 0.03c0,0.05 0.02,0.04 -0.03,0.04l0.01 0.04 -0.01 0.21 0 0.05 0.03 0.04 0.03 0.07 0.04 0.03 0.03 0.04 0.07 0.03 0.03 0 0.04 0.03 3.62 -0 0.05 -0.03 0.02 0 0.04 -0.03 0.03 -0.03 0.03 -0.03 0.04 -0.03 0 -0.03c-0,-0.05 -0.02,-0.04 0.03,-0.04l0 -0.02 0.03 -0.06 0 -0.14 -0.03 -0.07 -0.01 -0.05 -0.04 -0.04 -0.09 -0.1c-0.05,-0 -0.04,0.01 -0.04,-0.03l-0.05 -0.03 -0.04 -0.01 -0.07 -0.03 -3.49 0 -0.06 0.03zm-0.13 -1.43l-0.03 0.04 -0.03 0.03 -0.03 0.04 -0 0.02 -0.03 0.05 -0 0.05 0.01 0.21 -0.01 0.04c0.05,0 0.03,-0.01 0.03,0.05l0 0.03 0.04 0.03 0.06 0.07 0.03 0.04 0.03 0c0.05,-0 0.04,-0.02 0.04,0.03l0.02 0 0.05 -0 4.52 -0 0.06 0 0.04 -0.03 0.03 -0 0.04 -0.03 0.03 -0.03 0.04 -0.03 0.03 -0.07 0.03 -0.05 0 -0.06 0 -0.15 -0 -0.05c-0.05,0 -0.03,0.01 -0.03,-0.06l-0 -0.02c-0.05,0 -0.04,0.01 -0.04,-0.04l-0.09 -0.1c-0.05,-0 -0.04,0.01 -0.04,-0.04l-0.03 -0 -0.05 -0.03 -0.06 -0 -4.45 0 -0.2 0.07zm-8.91 -5.85l-0.03 -0c0,0.05 0.01,0.03 -0.04,0.04l-0.13 0.14 -0.03 0.04 -0 0.06 0 0.22 0 0.05 0.03 0.05c0.06,0.1 0.04,0.08 0.13,0.14l0.04 0.04 0.02 0 0.06 0.03 4.52 0 0.06 -0.03 0.09 -0.03 0.03 -0.04 0.03 -0.03 0.04 -0.04c0,-0.05 -0.01,-0.04 0.03,-0.04l0 -0.02 0.03 -0.06 0 -0.25 -0.03 -0.06 -0 -0.03 -0.03 -0.04 -0.04 -0.04 -0.03 -0.03 -0.03 -0.04 -0.04 -0.03 -0.05 -0 -0.07 -0.04 -4.49 0 -0.07 0.04zm-0.37 5.22c0,0.05 0.01,0.04 -0.04,0.04l-0.06 0.06c-0,0.05 0.01,0.04 -0.04,0.04l-0.02 0.11 -0 0.2 -0 0.05 0 0.06 0.04 0.07 -0 0.07 0.04 0.07 -0 0.06 0.04 0.07 -0 0.04c0.05,0 0.03,-0.01 0.03,0.06l0.01 0.05c0.05,0 0.03,-0.01 0.03,0.05l0 0.05c0.05,0 0.03,-0.01 0.03,0.06l-0 0.06 0.05 0.05 -0 0.03 0.03 0.06 0 0.02c0.05,0 0.03,-0.01 0.03,0.05l0.01 0.04 0.03 0.06 0 0.03c0.05,0 0.03,-0.01 0.03,0.05l0.07 0.19 0.03 0.04 0 0.03 0.03 0.04 0 0.03 0.03 0.04 0 0.03 0.04 0.04 0.06 0.14c0.05,0 0.04,-0.01 0.04,0.04l0 0.03 0.03 0.04 0.07 0.13 0.04 0.04 0.03 0.07c0.05,0 0.04,-0.01 0.04,0.04l0.03 0.07c0.05,0 0.04,-0.01 0.04,0.04l0.03 0.07 0.04 0.03 0.03 0.07 0.04 0.04 0.04 0.04 0.03 0.06 0.04 0.04 0.04 0.03 0.06 0.1c0.05,0 0.04,-0.01 0.04,0.04l0.03 0.03 0.04 0.03 0.13 0.17c0.05,0 0.04,-0.01 0.04,0.04l0.03 0.03 0.03 0.03 0.03 0.03 0.03 0.03 0.03 0.03 0.03 0.03 0.03 0.03 0.03 0.03 0.03 0.04 0.17 0.13 0.04 0.04 0.03 0.03 0.03 0.04 0.1 0.06 0.04 0.04 0.03 0.04 0.1 0.06 0.03 0.04 0.06 0.03c0.05,0 0.04,-0.01 0.04,0.03 0.05,0 0.04,-0.01 0.04,0.04l0.06 0.03 0.03 0.04 0.07 0.03 0.04 0.04 0.02 0c0.05,-0 0.04,-0.02 0.04,0.03 0.05,0 0.04,-0.01 0.04,0.03l0.02 0c0.05,0 0.04,-0.01 0.04,0.04l0.07 0.03 0.04 0.04 0.03 0 0.04 0.03 0.03 0 0.04 0.03 0.03 0 0.04 0.03 0.03 0 0.04 0.03 0.03 0 0.04 0.03 0.05 0.01c0.06,-0.01 0.05,-0.02 0.05,0.03l0.03 0c0.06,-0 0.05,-0.02 0.05,0.03l0.02 0 0.05 0.03 0.05 0.01c0.06,-0.01 0.05,-0.02 0.05,0.03l0.02 0 0.06 0.03 0.05 0.01 0.06 0.03 0.04 0.01c0.06,-0.01 0.05,-0.02 0.05,0.03l0.03 0 0.03 0 0.04 0.03 0.03 0 0.03 0 0.05 0.03 0.04 0.01 0.06 0.03 0.05 0 0.07 0.04 0.06 -0 0.07 0.04 0.07 -0 0.08 0.04 0.09 0 0.08 0.03 0.07 -0 0.06 0 0.08 0.03 0.07 -0 0.06 0 0.09 0.03 0.14 0 0.08 -0 0.13 0.04 0.17 0c0.05,0.02 0.06,0 0,0.03 0,0.05 0.02,0.04 -0.03,0.04l-0.03 0.03 -0.03 0.03 -0.03 0.03 -0.03 0.03 -0.03 0.03 -0.03 0.03 -0.03 0.03 -0.03 0.03 -0.03 0.03 -0.03 0.03 -0.03 0.03 -0.03 0.03 -0.03 0.03 -0.03 0.03 -0.03 0.03 -0.03 0.03 -0.03 0.03 -0.03 0.03 -0.03 0.03 -0.03 0.03 -0.03 0.03 -0.03 0.03 -0.03 0.03 -0.03 0.03 -0.03 0.03 -0.03 0.03 -0.03 0.03 -0.04 0.03 -0.04 0.09c0,0.06 0.02,0.05 -0.03,0.05l0 0.22 0.03 0.06 0 0.03 0.04 0.04c0.06,0.1 0,0.04 0.1,0.1l0.04 0.04 0.01 0 0.06 0.03 0.22 0c0,-0.05 -0.01,-0.03 0.05,-0.03l0.08 -0.04c0,-0.05 -0.01,-0.04 0.04,-0.04l0.03 -0.03 0.03 -0.03 0.03 -0.03 0.03 -0.03 0.03 -0.03 0.03 -0.03 0.03 -0.03 0.03 -0.03 0.03 -0.03 0.03 -0.03 0.03 -0.03 0.03 -0.03 0.03 -0.03 0.03 -0.03 0.03 -0.03 0.03 -0.03 0.03 -0.03 0.03 -0.03 0.03 -0.03 0.03 -0.03 0.03 -0.03 0.03 -0.03 0.03 -0.03 0.03 -0.03 0.03 -0.03 0.03 -0.03 0.03 -0.03 0.03 -0.03 0.03 -0.03 0.03 -0.03 0.03 -0.03 0.03 -0.03 0.03 -0.03 0.03 -0.03 0.03 -0.03 0.03 -0.03 0.03 -0.03 0.03 -0.03 0.03 -0.03 0.03 -0.03 0.03 -0.03 0.03 -0.03 0.03 -0.03 0.03 -0.03 0.03 -0.03 0.03 -0.03 0.03 -0.03 0.03 -0.03 0.03 -0.03 0.03 -0.03 0.03 -0.03 0.04 -0.03 0 -0.03c-0,-0.05 -0.02,-0.04 0.03,-0.04l0 -0.02 -0.01 -0.06 0 -0.15 0.01 -0.05 -0.03 -0.1 -0.04 -0.03 -0.03 -0.04 -0.04 -0.03 -0.03 -0.03 -0.03 -0.03 -0.03 -0.03 -0.03 -0.03 -0.03 -0.03 -0.03 -0.03 -0.03 -0.04 -0.27 -0.24 -0.04 -0.04 -0.03 -0.03 -0.03 -0.03 -0.03 -0.03 -0.03 -0.03 -0.03 -0.03 -0.03 -0.03 -0.03 -0.04 -0.27 -0.24 -0.04 -0.04 -0.03 -0.03 -0.03 -0.03 -0.03 -0.03 -0.03 -0.03 -0.03 -0.03 -0.03 -0.03 -0.03 -0.04 -0.31 -0.27 -0.03 -0.04 -0.03 -0.03c-0.05,-0 -0.04,0.01 -0.04,-0.03l-0.02 -0 -0.05 -0.03 -0.06 -0 -0.16 -0c-0.15,0.03 -0.19,0.08 -0.26,0.17 0,0.05 0.01,0.04 -0.04,0.04l-0 0.03 -0.03 0.06 -0 0.22 0.03 0.06 0.07 0.12c0.05,0 0.04,-0.01 0.04,0.04l0.27 0.24 0.03 0.04 0.03 0.03 0.03 0.03 0.03 0.03 0.03 0.03 0.03 0.03 0.03 0.03c0.05,0 0.04,-0.01 0.04,0.04l0.27 0.24 0.04 0.04 0.03 0.03 0.03 0.03c0.05,0.04 0.05,0.01 0,0.04l-0.17 -0.01 -0.13 -0 -0.08 -0.03 -0.12 -0 -0.09 -0.03 -0.1 0 -0.1 -0.04 -0.09 0 -0.08 -0.04 -0.07 0 -0.07 -0.04 -0.06 0 -0.04 0 -0.05 -0.03 -0.05 -0 -0.06 -0.03 -0.05 -0.01 -0.04 0 -0.04 -0.03 -0.03 0 -0.03 -0 -0.04 -0.03 -0.03 -0 -0.03 -0 -0.03 -0.04 -0.02 0 -0.05 -0.03 -0.05 -0.01c-0.06,0 -0.05,0.02 -0.05,-0.03l-0.02 -0 -0.05 -0.03 -0.05 -0.01c-0.06,0.01 -0.05,0.02 -0.05,-0.03l-0.03 -0c-0.06,0 -0.05,0.02 -0.05,-0.03l-0.02 -0 -0.05 -0.03 -0.03 -0 -0.04 -0.03 -0.03 -0 -0.04 -0.03 -0.03 -0 -0.04 -0.03 -0.03 -0 -0.04 -0.04 -0.02 -0c-0.05,0 -0.04,0.01 -0.04,-0.04l-0.07 -0.03 -0.04 -0.04 -0.02 -0c-0.05,0 -0.04,0.02 -0.04,-0.03 -0.05,-0 -0.04,0.01 -0.04,-0.03l-0.02 -0c-0.05,0 -0.04,0.01 -0.04,-0.03 -0.05,-0 -0.04,0.01 -0.04,-0.04l-0.06 -0.03 -0.03 -0.04 -0.06 -0.03 -0.04 -0.03 -0.03 -0.04 -0.1 -0.06 -0.04 -0.04 -0.03 -0.03c-0.05,-0 -0.04,0.01 -0.04,-0.04l-0.13 -0.1 -0.04 -0.04 -0.03 -0.03 -0.03 -0.03 -0.03 -0.03 -0.03 -0.03 -0.03 -0.03 -0.03 -0.03 -0.03 -0.03 -0.03 -0.03 -0.03 -0.03 -0.04 -0.04 -0.13 -0.17 -0.04 -0.03 -0.04 -0.03 -0.06 -0.1 -0.04 -0.03 -0.03 -0.04 -0.03 -0.06c-0.05,0 -0.04,0.01 -0.04,-0.04l-0.03 -0.04 -0.03 -0.07c-0.05,0 -0.04,0.01 -0.04,-0.04l-0.03 -0.07c-0.05,0 -0.04,0.01 -0.04,-0.04l-0 -0.02 -0.04 -0.04 -0.03 -0.07c-0.05,0 -0.03,0.01 -0.04,-0.04l-0.06 -0.14c-0.05,0 -0.04,0.01 -0.04,-0.04l-0 -0.03c-0.05,0 -0.03,0.01 -0.03,-0.04l-0 -0.03c-0.05,0 -0.03,0.01 -0.03,-0.04l-0 -0.03c-0.05,0 -0.03,0.01 -0.03,-0.04l-0 -0.03c-0.05,0 -0.03,0.01 -0.03,-0.04l-0 -0.03c-0.05,0 -0.03,0.01 -0.03,-0.04l0 -0.03c-0.05,0 -0.03,0.01 -0.03,-0.05l-0.04 -0.12 -0.03 -0.06 -0 -0.02c-0.05,0 -0.03,0.01 -0.03,-0.06l-0.01 -0.04 -0.03 -0.06 -0.01 -0.05 -0.03 -0.05 -0.04 -0.15 -0.03 -0.05 -0.01 -0.05 -0.03 -0.07 -0 -0.06 -0.04 -0.06 0.01 -0.07 -0.04 -0.07 -0 -0.06c-0.05,0 -0.03,0.01 -0.03,-0.06l-0.04 -0.09 -0.04 -0.04 -0.03 -0.04 -0.07 -0.03 -0.04 -0.03 -0.05 -0 -0.2 0.01 -0.11 0.02zm8.92 -9.54l-0.08 0.02 -0.03 0.04 -0.03 0.03 -0.03 0.03 -0.03 0.03 -0.03 0.03 -0.03 0.03 -0.03 0.03 -0.03 0.03 -0.03 0.03 -0.03 0.03 -0.03 0.03 -0.03 0.03 -0.03 0.03 -0.03 0.03 -0.03 0.03 -0.03 0.03 -0.03 0.03 -0.03 0.03 -0.03 0.03 -0.03 0.03 -0.03 0.03 -0.03 0.03 -0.03 0.03 -0.03 0.03 -0.03 0.03 -0.03 0.03 -0.03 0.03 -0.03 0.03 -0.03 0.03 -0.03 0.03 -0.03 0.04 -0.71 0.72 -0.04 0.04 -0.03 0.04 -0 0.03 -0 0.03 -0.03 0.04 0 0.19 0.03 0.06 0 0.02c0.05,0 0.04,-0.01 0.04,0.04l0 0.03 0.04 0.04 0.03 0.03 0.03 0.04 0.27 0.24 0.04 0.04 0.03 0.03 0.03 0.03 0.03 0.03 0.03 0.03 0.03 0.03 0.03 0.03 0.03 0.04 0.31 0.27 0.03 0.04 0.03 0.03 0.03 0.03 0.03 0.03 0.03 0.03 0.03 0.03 0.03 0.03c0.05,0 0.04,-0.01 0.04,0.04l0.27 0.24 0.03 0.04 0.03 0.03 0.03 0.03 0.03 0.03 0.03 0.03 0.03 0.03 0.03 0.03 0.04 0.04 0.06 0.03 0.04 0.03 0.05 0 0.21 -0 0.11 -0.03c0,-0.05 -0.01,-0.04 0.04,-0.04l0.09 -0.1 0.04 -0.04 0.01 -0.05 0.03 -0.07 0.01 -0.12 -0.04 -0.07 -0.03 -0.1 -0.04 -0.03 -0.03 -0.03 -0.03 -0.03 -0.03 -0.03 -0.03 -0.03 -0.03 -0.03 -0.03 -0.03 -0.03 -0.03c-0.05,-0 -0.04,0.01 -0.04,-0.04l-0.27 -0.24 -0.03 -0.04 -0.03 -0.03 -0.03 -0.03 -0.03 -0.03 -0.03 -0.03 -0.03 -0.03 -0.03 -0.03c-0.05,-0 -0.04,0.01 -0.04,-0.04l-0.11 -0.09c-0.05,-0.04 -0.04,-0.01 -0.07,-0.09l0.21 0 0.14 0.04 0.13 -0 0.11 0.04 0.12 0 0.08 0.03 0.09 0 0.07 0.04 0.07 -0 0.07 0.04 0.07 -0 0.07 0.04 0.05 0 0.06 0.03 0.04 0.01 0.05 -0 0.03 0.04 0.03 0 0.04 -0 0.03 0.04 0.03 0 0.04 -0 0.03 0.04 0.02 0 0.06 0.03 0.05 0.01 0.06 0.03 0.02 0 0.05 0.03 0.04 0.01c0.06,-0 0.04,-0.02 0.04,0.03l0.03 0 0.05 0.03 0.03 0 0.04 0.03 0.03 0 0.04 0.03 0.03 0 0.04 0.03 0.03 0 0.04 0.03 0.03 0 0.04 0.03 0.03 0 0.04 0.04 0.02 0c0.05,-0 0.04,-0.02 0.04,0.03l0.04 0.03 0.03 0 0.03 0.04 0.07 0.03 0.03 0.04 0.07 0.03 0.03 0.04 0.04 0.03 0.02 0 0.04 0.03 0.03 0.04 0.1 0.06 0.03 0.04 0.03 0.04 0.1 0.07 0.04 0.04 0.03 0.03 0.03 0.03 0.03 0.03 0.03 0.04 0.27 0.27c0.05,0 0.04,-0.01 0.04,0.04l0.03 0.03 0.03 0.03 0.03 0.03 0.04 0.04 0.06 0.1c0.05,0 0.04,-0.01 0.04,0.04l0.04 0.03 0.06 0.1 0.04 0.03 0.03 0.04 0.03 0.07 0.04 0.03 0.03 0.07 0.04 0.04 0.03 0.07 0.04 0.04 0.03 0.07c0.05,0 0.04,-0.01 0.04,0.04l0 0.03 0.04 0.04 0.03 0.07c0.05,0 0.04,-0.01 0.04,0.04l0 0.02c0.05,0 0.04,-0.01 0.04,0.04l0 0.03c0.05,0 0.03,-0.01 0.03,0.04l0 0.03c0.05,0 0.03,-0.01 0.03,0.04l0 0.03c0.05,0 0.03,-0.01 0.03,0.04l0 0.03c0.05,0 0.03,-0.01 0.03,0.04l0 0.03c0.05,0 0.03,-0.01 0.03,0.04l0 0.03c0.05,0 0.03,-0.01 0.03,0.06l0.04 0.12 0.03 0.04 0.03 0.14 0.05 0.05 -0 0.03 0.03 0.06 0.01 0.05 0.03 0.06 0 0.05 0.04 0.07 -0.01 0.05 0.04 0.06 -0.01 0.05 0.04 0.07 -0 0.09 0.04 0.07 0.03 0.1c0.05,0 0.04,-0.01 0.04,0.04l0.06 0.07 0.04 0.03 0.04 0.03 0.05 0 0.08 0.03 0.1 0 0.08 -0.03 0.09 -0.03 0.03 -0.04 0.03 -0.03 0.04 -0.03c0,-0.05 -0.01,-0.04 0.03,-0.04l0 -0.02 0.03 -0.06 0 -0.05 0 -0.16 0 -0.06 -0.04 -0.07 0 -0.07 -0.04 -0.07 0 -0.07 -0.04 -0.06 -0 -0.06 -0.03 -0.06 -0 -0.05 -0.04 -0.07 0 -0.04 -0.03 -0.05 -0.01 -0.04 -0.03 -0.06 -0.01 -0.05 -0.03 -0.05 -0 -0.02c-0.05,0 -0.03,0.01 -0.03,-0.06l-0.01 -0.04 -0.03 -0.05 -0 -0.02c-0.05,0 -0.03,0.01 -0.03,-0.04l-0 -0.03c-0.05,0 -0.04,0.01 -0.03,-0.05l-0.04 -0.11 -0.03 -0.05 -0 -0.03 -0.03 -0.04 0 -0.03 -0.03 -0.04 -0 -0.03 -0.03 -0.04 -0.1 -0.21c-0.05,0 -0.04,0.01 -0.04,-0.04l-0 -0.03 -0.04 -0.04 -0.03 -0.07c-0.05,0 -0.04,0.01 -0.04,-0.04l-0 -0.02 -0.04 -0.04 -0.03 -0.07 -0.04 -0.04 -0.03 -0.07c-0.05,0 -0.03,0.01 -0.04,-0.04l-0.04 -0.04 -0.03 -0.07 -0.04 -0.03 -0.03 -0.07 -0.04 -0.04 -0.04 -0.03 -0.06 -0.1 -0.04 -0.03 -0.04 -0.03 -0.1 -0.14c-0.05,0 -0.04,0.01 -0.04,-0.04l-0.03 -0.03 -0.03 -0.03 -0.03 -0.03 -0.04 -0.03 -0.23 -0.24 -0.04 -0.04 -0.03 -0.03 -0.03 -0.03 -0.03 -0.03 -0.03 -0.03c-0.05,-0 -0.04,0.01 -0.04,-0.04l-0.1 -0.07 -0.04 -0.04 -0.03 -0.03 -0.03 -0.04 -0.1 -0.06 -0.03 -0.04 -0.04 -0.03 -0.06 -0.03 -0.03 -0.04 -0.06 -0.03 -0.04 -0.04c-0.05,-0 -0.04,0.01 -0.04,-0.03l-0.02 -0c-0.05,0 -0.04,0.01 -0.04,-0.03 -0.05,-0 -0.04,0.01 -0.04,-0.03l-0.02 -0 -0.04 -0.03 -0.04 -0.03 -0.03 -0 -0.03 -0.04 -0.03 -0c-0.05,0 -0.04,0.02 -0.04,-0.03l-0.04 -0.03 -0.03 -0 -0.04 -0.04 -0.02 -0c-0.06,0 -0.05,0.02 -0.05,-0.03l-0.02 -0c-0.06,0 -0.05,0.02 -0.05,-0.03l-0.02 0c-0.06,0 -0.05,0.02 -0.05,-0.03l-0.02 -0 -0.05 -0.03 -0.03 -0 -0.04 -0.03 -0.03 -0 -0.05 -0.03 -0.05 -0.01c-0.05,0 -0.04,0.02 -0.04,-0.03l-0.02 -0 -0.05 -0.03 -0.05 -0.01c-0.06,0.01 -0.05,0.02 -0.05,-0.03l-0.02 0 -0.05 -0.03 -0.05 -0.01 -0.06 -0.03 -0.04 -0.01c-0.06,0.01 -0.05,0.02 -0.05,-0.03l-0.03 -0 -0.03 -0 -0.05 -0.03 -0.04 -0.01 -0.06 -0.03 -0.04 -0.01 -0.06 -0.03 -0.05 -0.01 -0.04 0 -0.05 -0.03 -0.06 0 -0.07 -0.04 -0.05 -0 -0.05 0 -0.05 -0.04 -0.06 0 -0.06 0.01 -0.05 -0.04 -0.09 -0 -0.08 -0.02 -0.15 -0 -0.13 -0.04 -0.11 0 -0.13 -0 -0.15 -0.03 -0.09 -0.01 0.37 -0.37 0.03 -0.04 0.03 -0.03 0.03 -0.03 0.03 -0.03 0.03 -0.03 0.03 -0.03 0.03 -0.03 0.03 -0.03 0.03 -0.03 0.03 -0.03 0.03 -0.03 0.03 -0.03 0.03 -0.03 0.03 -0.03 0.03 -0.03 0.03 -0.03 0.03 -0.03 0.04 -0.03 0.03 -0.06 0.03 -0.05 -0 -0.03 0.04 -0.07 0 -0.13 -0.04 -0.07 0 -0.03c-0.05,0 -0.03,0.01 -0.03,-0.04l-0.03 -0.07 -0.04 -0.03 -0.04 -0.03 -0.02 -0c-0.05,-0 -0.04,0.01 -0.04,-0.04l-0.02 -0 -0.06 -0.03 -0.18 -0.01 -0.06 0.04zm-0.41 8.75l0.04 -0.04c0.09,-0.08 1.35,-0.04 1.59,-0.04 0.53,0 1.07,0 1.6,0 0.34,0 3.1,-0.04 3.16,0.04 0.05,-0 0.04,-0.02 0.04,0.04l0 5.01 -0.03 0.04 -0.02 0c-0.09,0.04 -0.1,0.03 -0.22,0.03 -0.76,-0 -2.83,-0.03 -3.29,0.01l-0.11 0.02c0,0.05 0.01,0.04 -0.04,0.04l-0.06 0.03c0,0.05 0.01,0.04 -0.04,0.04l-0.04 0.04 -0.06 0.03c0,0.05 0.01,0.04 -0.04,0.04l-0.04 0.04 -0.06 0.03c0,0.05 0.01,0.04 -0.04,0.04l-0.04 0.04 -0.06 0.03c0,0.05 0.01,0.04 -0.04,0.04l-0.04 0.04 -0.06 0.03c0,0.05 0.01,0.04 -0.04,0.04l-0.04 0.04 -0.06 0.03c0,0.05 0.01,0.04 -0.04,0.04l-0.04 0.04 -0.06 0.03c0,0.05 0.01,0.04 -0.04,0.04l-0.04 0.04 -0.06 0.03c0,0.05 0.01,0.04 -0.04,0.04l-0.04 0.04 -0.06 0.03c0,0.05 0.01,0.04 -0.04,0.04l-0.04 0.04 -0.03 0c-0.02,0 0,0.07 -0.04,-0.04l0 -0.64 -0.07 -0.2 -0.04 -0.03 -0.03 -0.03 -0.04 -0.03 -0.02 -0 -0.05 -0.03 -0.05 -0c-0.16,-0 -1.04,0.03 -1.08,-0.04 -0.05,0 -0.04,0.01 -0.04,-0.04 -0.09,-0.09 -0.04,-1.03 -0.04,-1.24l0 -2.54c0,-0.16 -0.04,-1.16 0.04,-1.21zm-0.79 -0.23l-0.03 5.29c-0,0.25 0.17,0.73 0.8,0.82 0.17,-0.01 0.5,-0.03 0.66,0.03l0.01 1.17c0.04,0.14 0.07,0.18 0.17,0.24l0.04 0.03 0.03 0 0.05 0.03 0.17 0 0.06 -0.03 0.09 -0.03c0,-0.05 -0.01,-0.04 0.04,-0.04l0.06 -0.03c0,-0.05 -0.01,-0.04 0.04,-0.04l0.04 -0.04 0.06 -0.03c0,-0.05 -0.01,-0.04 0.04,-0.04l0.04 -0.04 0.06 -0.03c0,-0.05 -0.01,-0.04 0.04,-0.04l0.04 -0.04 0.06 -0.03c0,-0.05 -0.01,-0.04 0.04,-0.04l0.04 -0.04 0.06 -0.03c0,-0.05 -0.01,-0.04 0.04,-0.04l0.04 -0.04 0.06 -0.03c0,-0.05 -0.01,-0.04 0.04,-0.04l0.04 -0.04 0.06 -0.03c0,-0.05 -0.01,-0.04 0.04,-0.04l0.04 -0.04 0.06 -0.03c0,-0.05 -0.01,-0.04 0.04,-0.04l0.04 -0.04 0.06 -0.03c0,-0.05 -0.01,-0.04 0.04,-0.04l0.04 -0.04 0.06 -0.03c0,-0.05 -0.01,-0.04 0.04,-0.04l0.04 -0.04 0.06 -0.03c0,-0.05 -0.01,-0.04 0.04,-0.04l0.04 -0.04 0.06 -0.03c0,-0.05 -0.01,-0.04 0.04,-0.04l0.04 -0.04 0.06 -0.03c0,-0.05 -0.01,-0.04 0.04,-0.04l0.04 -0.04 0.02 -0 3.34 -0.04c0.82,-0.04 0.8,-0.53 0.81,-0.81l0 -5.18c0.02,-0.57 -0.31,-0.76 -0.79,-0.77l-6.49 -0c-0.28,0.01 -0.73,0.35 -0.75,0.65zm-8.42 -6.43l-0.06 -0 -0.05 0.03 -0.16 0.07 -0.04 0.04c-0.1,0.07 -0.14,0.1 -0.2,0.2l-0.04 0.03 -0 0.03c0,0.05 0.02,0.04 -0.04,0.04l-0 0.02c0.01,0.06 0.02,0.05 -0.03,0.05l-0 0.03 -0.03 0.06 -0 0.05 -0.04 0.08 0 5.22 0.03 0.09 0.01 0.08 0.03 0.06 0 0.03c0.05,0 0.03,-0.01 0.03,0.04l0 0.03 0.04 0.04 0.03 0.07 0.04 0.03 0.04 0.04 0.07 0.06 0.03 0.04 0.03 0.04 0.07 0.03 0.04 0.03 0.03 0 0.04 0.03 0.05 0.01 0.06 0.03 0.08 0c0.57,-0 1.16,0 1.74,0 0.28,0 0.57,0 0.85,0 0.16,0 0.74,-0.07 0.81,0.04l0.07 0.03 0.04 0.03 0.03 0.04 0.06 0.03 0.04 0.03 0.03 0.04 0.06 0.03 0.04 0.03 0.03 0.04 0.06 0.03 0.04 0.03 0.03 0.04 0.06 0.03 0.04 0.03 0.03 0.04 0.06 0.03 0.04 0.03 0.03 0.04 0.06 0.03 0.04 0.03 0.03 0.04 0.06 0.03 0.04 0.03 0.03 0.04 0.06 0.03 0.04 0.03 0.03 0.04 0.06 0.03 0.04 0.03 0.03 0.04 0.06 0.03 0.04 0.03 0.03 0.04 0.06 0.03 0.04 0.03 0.03 0.04 0.06 0.03 0.04 0.03 0.03 0.04 0.06 0.03c0.05,0 0.04,-0.01 0.04,0.04l0.03 0 0.05 0.03c0.19,0.03 0.22,0 0.36,-0.06l0.03 -0.04 0.03 -0.03 0.03 -0.04 0 -0.02 0.03 -0.05 -0 -0.06 0.03 -1.16c0.09,-0.05 0.21,-0.03 0.35,-0.03 0.12,0 0.25,-0.01 0.36,-0.01l0.07 0.01 0.06 -0.03 0.05 -0.01 0.04 -0.03 0.03 -0c0,-0.05 -0.01,-0.03 0.04,-0.03l0.03 -0 0.04 -0.03 0.04 -0.04 0.16 -0.17 0.04 -0.03 0.03 -0.07 0.03 -0.04 0 -0.03 0.03 -0.05 0 -0.06 0.04 -0.07 -0.01 -0.08 0 -5.16 0.01 -0.08 -0.04 -0.07 -0 -0.05 -0.03 -0.05 -0 -0.03c-0.05,0 -0.03,0.01 -0.03,-0.04l0 -0.03 -0.04 -0.04 -0.03 -0.07 -0.04 -0.04 -0.03 -0.03 -0.03 -0.03 -0.03 -0.04 -0.06 -0.03c-0.05,-0 -0.04,0.01 -0.04,-0.03l-0.04 -0.03 -0.03 -0 -0.04 -0.03 -0.05 -0.01 -0.06 -0.03 -0.03 0 -0.05 -0.01 -0.09 -0.03 -6.49 -0 -0.1 0.04z"/>
 </g>
</svg>
