<?xml version="1.0" encoding="UTF-8"?>
<!DOCTYPE svg PUBLIC "-//W3C//DTD SVG 1.0//EN" "http://www.w3.org/TR/2001/REC-SVG-20010904/DTD/svg10.dtd">
<!-- Creator: CorelDRAW 2018 (64-Bit) -->
<svg xmlns="http://www.w3.org/2000/svg" xml:space="preserve" width="4.28702in" height="1.29602in" version="1.0" style="shape-rendering:geometricPrecision; text-rendering:geometricPrecision; image-rendering:optimizeQuality; fill-rule:evenodd; clip-rule:evenodd"
viewBox="0 0 1615.09 488.26"
 xmlns:xlink="http://www.w3.org/1999/xlink">
 <defs>
  <style type="text/css">
   <![CDATA[
    .fil4 {fill:black}
    .fil1 {fill:black}
    .fil0 {fill:#F8F0CC}
    .fil3 {fill:black;fill-rule:nonzero}
    .fil2 {fill:black;fill-rule:nonzero}
   ]]>
  </style>
 </defs>
 <g id="Layer_x0020_1">
  <metadata id="CorelCorpID_0Corel-Layer"/>
  <g id="_2483866624800">
   <path class="fil0" d="M1150.81 429.54l-132.87 58.72 -134.99 -58.72c0,-24.21 -19.63,-43.84 -43.84,-43.84l0 -341.87c24.21,0 43.84,-19.63 43.84,-43.84l267.86 0c0,24.21 19.63,43.84 43.84,43.84l0 341.87c-24.21,0 -43.84,19.63 -43.84,43.84z"/>
   <path class="fil1" d="M1017.89 478.08l-1.13 -0.49 -129.35 -56.27 0 -1.85c0,-21.31 -17.34,-38.64 -38.64,-38.64l-2.82 -0 0 -328.93 2.82 0c21.31,0 38.64,-17.34 38.64,-38.64l0 -2.82 258.95 0 0 2.82c0,21.31 17.34,38.64 38.64,38.64l2.82 0 0 328.93 -2.82 0c-21.31,0 -38.64,17.33 -38.64,38.64l0 1.83 -128.46 56.77zm-124.89 -60.47l124.88 54.32 122.89 -54.31c0.93,-22.62 18.93,-40.91 41.42,-42.33l0 -317.85c-22.17,-1.4 -39.97,-19.2 -41.37,-41.37l-247.86 0c-1.4,22.17 -19.2,39.97 -41.37,41.37l0 317.85c22.49,1.42 40.48,19.71 41.42,42.32z"/>
   <g>
    <path class="fil1" d="M953.39 376.92c-4.25,0 -7.7,-3.45 -7.7,-7.7 0,-4.25 3.45,-7.7 7.7,-7.7 4.25,0 7.7,3.45 7.7,7.7 0,4.25 -3.45,7.7 -7.7,7.7zm0 -11.38c-2.03,0 -3.68,1.65 -3.68,3.68 0,2.03 1.65,3.68 3.68,3.68 2.03,0 3.68,-1.65 3.68,-3.68 0,-2.03 -1.65,-3.68 -3.68,-3.68z"/>
    <path class="fil1" d="M985.13 376.92c-4.25,0 -7.7,-3.45 -7.7,-7.7 0,-4.25 3.45,-7.7 7.7,-7.7 4.25,0 7.7,3.45 7.7,7.7 0,4.25 -3.45,7.7 -7.7,7.7zm0 -11.38c-2.03,0 -3.68,1.65 -3.68,3.68 0,2.03 1.65,3.68 3.68,3.68 2.03,0 3.68,-1.65 3.68,-3.68 0,-2.03 -1.65,-3.68 -3.68,-3.68z"/>
    <path class="fil1" d="M1016.88 376.92c-4.25,0 -7.7,-3.45 -7.7,-7.7 0,-4.25 3.45,-7.7 7.7,-7.7 4.25,0 7.7,3.45 7.7,7.7 0,4.25 -3.46,7.7 -7.7,7.7zm0 -11.38c-2.03,0 -3.68,1.65 -3.68,3.68 0,2.03 1.65,3.68 3.68,3.68 2.03,0 3.68,-1.65 3.68,-3.68 0,-2.03 -1.65,-3.68 -3.68,-3.68z"/>
    <path class="fil1" d="M1048.62 376.92c-4.24,0 -7.7,-3.45 -7.7,-7.7 0,-4.25 3.45,-7.7 7.7,-7.7 4.25,0 7.7,3.45 7.7,7.7 0,4.25 -3.45,7.7 -7.7,7.7zm0 -11.38c-2.03,0 -3.68,1.65 -3.68,3.68 0,2.03 1.65,3.68 3.68,3.68 2.03,0 3.68,-1.65 3.68,-3.68 0,-2.03 -1.65,-3.68 -3.68,-3.68z"/>
    <path class="fil1" d="M1080.36 376.92c-4.25,0 -7.7,-3.45 -7.7,-7.7 0,-4.25 3.45,-7.7 7.7,-7.7 4.25,0 7.7,3.45 7.7,7.7 0,4.25 -3.46,7.7 -7.7,7.7zm0 -11.38c-2.03,0 -3.68,1.65 -3.68,3.68 0,2.03 1.65,3.68 3.68,3.68 2.03,0 3.68,-1.65 3.68,-3.68 0,-2.03 -1.65,-3.68 -3.68,-3.68z"/>
   </g>
   <g>
    <path class="fil1" d="M1080.14 79.04c0.54,5.3 0.96,10.59 1.24,15.86 5.75,1.83 11.45,3.9 17.07,6.23 -5.72,0.94 -11.28,2.12 -16.69,3.53 0.12,5.25 0.12,10.48 -0.01,15.69 -3.04,-4.36 -6.32,-8.65 -9.83,-12.84 -5.21,1.67 -10.24,3.56 -15.1,5.63 2.65,-4.48 5.43,-8.91 8.32,-13.29 -3.8,-4.07 -7.83,-8.03 -12.09,-11.86 5.9,1.02 11.77,2.28 17.59,3.8 3.05,-4.31 6.21,-8.57 9.49,-12.76z"/>
    <path class="fil1" d="M1016.88 70.08c1.97,4.94 3.82,9.9 5.53,14.89 5.97,0.16 11.93,0.56 17.87,1.22 -5.14,2.51 -10.09,5.19 -14.83,8.05 1.56,5.01 2.98,10.04 4.28,15.08 -4.07,-3.34 -8.35,-6.54 -12.85,-9.59 -4.49,3.05 -8.78,6.26 -12.85,9.59 1.3,-5.04 2.73,-10.07 4.28,-15.08 -4.75,-2.86 -9.69,-5.55 -14.84,-8.05 5.94,-0.65 11.9,-1.06 17.87,-1.22 1.72,-4.99 3.56,-9.95 5.53,-14.89z"/>
    <path class="fil1" d="M953.62 79.04c3.28,4.19 6.45,8.45 9.49,12.76 5.82,-1.52 11.69,-2.78 17.59,-3.8 -4.26,3.83 -8.29,7.79 -12.09,11.86 2.9,4.38 5.67,8.81 8.32,13.29 -4.86,-2.08 -9.89,-3.96 -15.1,-5.63 -3.51,4.19 -6.79,8.48 -9.83,12.84 -0.13,-5.21 -0.14,-10.44 -0.01,-15.69 -5.41,-1.41 -10.98,-2.59 -16.69,-3.53 5.62,-2.33 11.32,-4.41 17.07,-6.23 0.28,-5.27 0.7,-10.56 1.24,-15.86z"/>
   </g>
   <polygon class="fil1" points="1017.28,429.66 963.14,411.34 964.43,407.53 1017.27,425.41 1069.31,407.53 1070.62,411.34 "/>
   <path class="fil2" d="M929.13 236.74c15.61,0 27.25,-9.2 29.44,-23.12l-14.17 0c-1.69,6.16 -7.34,9.96 -15.02,9.96 -10.04,0 -16.28,-7.34 -16.28,-19.07 0,-11.9 6.16,-19.07 16.28,-19.07 7.51,0 12.82,3.54 14.68,9.79l14.43 0c-1.94,-14 -13.16,-22.95 -28.77,-22.95 -18.65,0 -31.05,12.82 -31.05,32.31 0,19.74 11.73,32.14 30.46,32.14zm51.8 -1.01l0 -17.46c0,-6.83 -0.08,-12.06 -0.84,-16.71l13.16 34.17 12.49 0 13.25 -34.17c-0.67,4.64 -0.67,7.59 -0.67,21.09l0 13.08 13.25 0 0 -62.43 -13.41 0 -18.65 46.57 -18.56 -46.57 -13.25 0 0 62.43 13.25 0zm76.86 0l0 -17.46c0,-6.83 -0.08,-12.06 -0.84,-16.71l13.16 34.17 12.49 0 13.25 -34.17c-0.67,4.64 -0.67,7.59 -0.67,21.09l0 13.08 13.25 0 0 -62.43 -13.41 0 -18.65 46.57 -18.56 -46.57 -13.25 0 0 62.43 13.25 0zm77.28 -62.43l-13.67 0 0 62.43 13.67 0 0 -62.43z"/>
   <path class="fil3" d="M1015.34 280.34c7.22,0 10.98,3.64 10.98,9.1 0,5.84 -3.83,9.6 -9.73,9.6 -5.71,0 -9.35,-3.45 -9.35,-9.35l-6.09 0c0,9.41 6.4,14.87 15.31,14.87 9.22,0 16.13,-5.84 16.13,-15 0,-8.16 -5.84,-13.36 -13.55,-14.31l12.42 -11.86 0 -4.96 -28.17 0 0 5.46 20.39 0 -12.86 12.36 0 4.08 4.52 0z"/>
  </g>
  <g id="_2483866628832">
   <path class="fil0" d="M1571.25 429.54l-132.87 58.72 -134.99 -58.72c0,-24.21 -19.63,-43.84 -43.84,-43.84l0 -341.87c24.21,0 43.84,-19.63 43.84,-43.84l267.86 0c0,24.21 19.63,43.84 43.84,43.84l0 341.87c-24.21,0 -43.84,19.63 -43.84,43.84z"/>
   <path class="fil1" d="M1438.33 478.08l-1.13 -0.49 -129.35 -56.27 0 -1.85c0,-21.31 -17.34,-38.64 -38.64,-38.64l-2.82 -0 0 -328.93 2.82 0c21.31,0 38.64,-17.34 38.64,-38.64l0 -2.82 258.95 0 0 2.82c0,21.31 17.34,38.64 38.64,38.64l2.82 0 0 328.93 -2.82 0c-21.31,0 -38.64,17.33 -38.64,38.64l0 1.83 -128.46 56.77zm-124.89 -60.47l124.88 54.32 122.89 -54.31c0.93,-22.62 18.93,-40.91 41.42,-42.33l0 -317.85c-22.17,-1.4 -39.97,-19.2 -41.37,-41.37l-247.86 0c-1.4,22.17 -19.2,39.97 -41.37,41.37l0 317.85c22.49,1.42 40.48,19.71 41.42,42.32z"/>
   <g>
    <path class="fil1" d="M1373.83 376.92c-4.25,0 -7.7,-3.45 -7.7,-7.7 0,-4.25 3.45,-7.7 7.7,-7.7 4.25,0 7.7,3.45 7.7,7.7 0,4.25 -3.45,7.7 -7.7,7.7zm0 -11.38c-2.03,0 -3.68,1.65 -3.68,3.68 0,2.03 1.65,3.68 3.68,3.68 2.03,0 3.68,-1.65 3.68,-3.68 0,-2.03 -1.65,-3.68 -3.68,-3.68z"/>
    <path class="fil1" d="M1405.58 376.92c-4.25,0 -7.7,-3.45 -7.7,-7.7 0,-4.25 3.45,-7.7 7.7,-7.7 4.25,0 7.7,3.45 7.7,7.7 0,4.25 -3.45,7.7 -7.7,7.7zm0 -11.38c-2.03,0 -3.68,1.65 -3.68,3.68 0,2.03 1.65,3.68 3.68,3.68 2.03,0 3.68,-1.65 3.68,-3.68 0,-2.03 -1.65,-3.68 -3.68,-3.68z"/>
    <path class="fil1" d="M1437.32 376.92c-4.25,0 -7.7,-3.45 -7.7,-7.7 0,-4.25 3.45,-7.7 7.7,-7.7 4.25,0 7.7,3.45 7.7,7.7 0,4.25 -3.46,7.7 -7.7,7.7zm0 -11.38c-2.03,0 -3.68,1.65 -3.68,3.68 0,2.03 1.65,3.68 3.68,3.68 2.03,0 3.68,-1.65 3.68,-3.68 0,-2.03 -1.65,-3.68 -3.68,-3.68z"/>
    <path class="fil1" d="M1469.06 376.92c-4.24,0 -7.7,-3.45 -7.7,-7.7 0,-4.25 3.45,-7.7 7.7,-7.7 4.25,0 7.7,3.45 7.7,7.7 0,4.25 -3.45,7.7 -7.7,7.7zm0 -11.38c-2.03,0 -3.68,1.65 -3.68,3.68 0,2.03 1.65,3.68 3.68,3.68 2.03,0 3.68,-1.65 3.68,-3.68 0,-2.03 -1.65,-3.68 -3.68,-3.68z"/>
    <path class="fil1" d="M1500.81 376.92c-4.25,0 -7.7,-3.45 -7.7,-7.7 0,-4.25 3.45,-7.7 7.7,-7.7 4.25,0 7.7,3.45 7.7,7.7 0,4.25 -3.46,7.7 -7.7,7.7zm0 -11.38c-2.03,0 -3.68,1.65 -3.68,3.68 0,2.03 1.65,3.68 3.68,3.68 2.03,0 3.68,-1.65 3.68,-3.68 0,-2.03 -1.65,-3.68 -3.68,-3.68z"/>
   </g>
   <g>
    <path class="fil1" d="M1500.58 79.04c0.54,5.3 0.96,10.59 1.24,15.86 5.75,1.83 11.45,3.9 17.07,6.23 -5.72,0.94 -11.28,2.12 -16.69,3.53 0.12,5.25 0.12,10.48 -0.01,15.69 -3.04,-4.36 -6.32,-8.65 -9.83,-12.84 -5.21,1.67 -10.24,3.56 -15.1,5.63 2.65,-4.48 5.43,-8.91 8.32,-13.29 -3.8,-4.07 -7.83,-8.03 -12.09,-11.86 5.9,1.02 11.77,2.28 17.59,3.8 3.05,-4.31 6.21,-8.57 9.49,-12.76z"/>
    <path class="fil1" d="M1437.32 70.08c1.97,4.94 3.82,9.9 5.53,14.89 5.97,0.16 11.93,0.56 17.87,1.22 -5.14,2.51 -10.09,5.19 -14.83,8.05 1.56,5.01 2.98,10.04 4.28,15.08 -4.07,-3.34 -8.36,-6.54 -12.85,-9.59 -4.49,3.05 -8.78,6.26 -12.85,9.59 1.3,-5.04 2.73,-10.07 4.28,-15.08 -4.75,-2.86 -9.69,-5.55 -14.84,-8.05 5.94,-0.65 11.9,-1.06 17.87,-1.22 1.72,-4.99 3.56,-9.95 5.53,-14.89z"/>
    <path class="fil1" d="M1374.06 79.04c3.28,4.19 6.45,8.45 9.49,12.76 5.82,-1.52 11.69,-2.78 17.59,-3.8 -4.26,3.83 -8.29,7.79 -12.09,11.86 2.9,4.38 5.67,8.81 8.32,13.29 -4.86,-2.08 -9.89,-3.96 -15.1,-5.63 -3.51,4.19 -6.79,8.48 -9.83,12.84 -0.13,-5.21 -0.14,-10.44 -0.01,-15.69 -5.41,-1.41 -10.98,-2.59 -16.69,-3.53 5.62,-2.33 11.32,-4.41 17.07,-6.23 0.28,-5.27 0.7,-10.56 1.24,-15.86z"/>
   </g>
   <polygon class="fil1" points="1437.73,429.66 1383.59,411.34 1384.88,407.53 1437.72,425.41 1489.76,407.53 1491.06,411.34 "/>
   <path class="fil2" d="M1332.79 235.73l14.09 0 22.95 -62.43 -14.26 0 -11.64 31.55c-1.35,3.71 -2.53,7.17 -4.13,13.16 -1.35,-5.4 -2.53,-9.28 -3.96,-13.16l-11.81 -31.55 -14.59 0 23.37 62.43zm43.2 0l4.47 -13.16 20.16 0 4.39 13.16 14.51 0 -22.19 -62.43 -13.33 0 -22.27 62.43 14.26 0zm12.91 -37.96c0.76,-2.28 1.43,-4.64 1.69,-6.08 0.25,1.52 1.01,3.97 1.69,6.08l4.47 13.33 -12.32 0 4.47 -13.33zm45.98 37.96l24.38 -62.26 -12.99 0 -24.3 62.26 12.91 0zm56.19 -20.75c12.74,0 21.26,-8.35 21.26,-20.84 0,-12.49 -8.52,-20.84 -21.26,-20.84l-25.31 0 0 62.43 13.67 0 0 -20.75 11.64 0zm-3.04 -29.53c6.58,0 9.87,2.87 9.87,8.69 0,5.82 -3.29,8.69 -9.87,8.69l-8.6 0 0 -17.38 8.6 0zm28.1 0.51l17.72 0 0 49.78 13.67 0 0 -49.78 17.72 0 0 -12.65 -49.1 0 0 12.65z"/>
   <path class="fil3" d="M1370.78 303.8l4.02 -11.29 19.07 0 4.08 11.29 6.46 0 -16.63 -45.36 -6.84 0 -16.56 45.36 6.4 0zm12.8 -35.58c0.31,-0.94 0.63,-2.01 0.75,-2.63 0.13,0.69 0.44,1.76 0.75,2.63l6.96 18.95 -15.37 0 6.9 -18.95zm46.18 4.89l0 16.19c0,6.59 -2.95,10.04 -8.34,10.04 -4.52,0 -7.34,-2.51 -7.34,-9.1l0 -17.13 -5.9 0 0 19.07c0,7.53 4.02,12.36 11.17,12.36 4.52,0 8.6,-2.2 10.35,-5.4l0.63 4.64 5.27 0 0 -30.68 -5.84 0zm26.04 31.43c4.89,0 9.04,-2.13 11.04,-6.34l0.5 5.58 5.27 0 0 -46.18 -5.84 0 0 20.46c-2.07,-3.76 -6.02,-5.84 -10.73,-5.84 -9.1,0 -14.56,6.9 -14.56,16.31 0,9.35 5.4,16 14.3,16zm1.19 -5.33c-6.02,0 -9.54,-4.52 -9.54,-10.85 0,-6.27 3.51,-10.79 9.54,-10.79 6.02,0 9.73,4.52 9.73,10.79 0,6.4 -3.7,10.85 -9.73,10.85zm27.04 -33.38c2.13,0 3.89,-1.76 3.89,-3.89 0,-2.2 -1.76,-3.89 -3.89,-3.89 -2.13,0 -3.89,1.69 -3.89,3.89 0,2.13 1.76,3.89 3.89,3.89zm-2.89 37.96l5.9 0 0 -30.68 -5.9 0 0 30.68zm23.09 0l0 -25.72 6.02 0 0 -4.96 -6.02 0 0 -9.6 -5.9 0 0 9.6 -6.02 0 0 4.96 6.02 0 0 25.72 5.9 0z"/>
  </g>
  <g id="_2483866634784">
   <path class="fil0" d="M311.7 429.54l-132.87 58.72 -134.99 -58.72c0,-24.21 -19.63,-43.84 -43.84,-43.84l0 -341.87c24.21,0 43.84,-19.63 43.84,-43.84l267.86 0c0,24.21 19.63,43.84 43.84,43.84l0 341.87c-24.21,0 -43.84,19.63 -43.84,43.84z"/>
   <path class="fil1" d="M178.78 478.08l-1.13 -0.49 -129.35 -56.27 0 -1.85c0,-21.31 -17.34,-38.64 -38.64,-38.64l-2.82 -0 0 -328.93 2.82 0c21.31,0 38.64,-17.34 38.64,-38.64l0 -2.82 258.95 0 0 2.82c0,21.31 17.34,38.64 38.64,38.64l2.82 0 0 328.93 -2.82 0c-21.31,0 -38.64,17.33 -38.64,38.64l0 1.83 -128.46 56.77zm-124.89 -60.47l124.88 54.32 122.89 -54.31c0.93,-22.62 18.93,-40.91 41.42,-42.33l0 -317.85c-22.17,-1.4 -39.97,-19.2 -41.37,-41.37l-247.86 0c-1.4,22.17 -19.2,39.97 -41.37,41.37l0 317.85c22.49,1.42 40.48,19.71 41.42,42.32z"/>
   <g>
    <path class="fil1" d="M114.28 376.92c-4.25,0 -7.7,-3.45 -7.7,-7.7 0,-4.25 3.45,-7.7 7.7,-7.7 4.25,0 7.7,3.45 7.7,7.7 0,4.25 -3.45,7.7 -7.7,7.7zm0 -11.38c-2.03,0 -3.68,1.65 -3.68,3.68 0,2.03 1.65,3.68 3.68,3.68 2.03,0 3.68,-1.65 3.68,-3.68 0,-2.03 -1.65,-3.68 -3.68,-3.68z"/>
    <path class="fil1" d="M146.03 376.92c-4.25,0 -7.7,-3.45 -7.7,-7.7 0,-4.25 3.45,-7.7 7.7,-7.7 4.25,0 7.7,3.45 7.7,7.7 0,4.25 -3.45,7.7 -7.7,7.7zm0 -11.38c-2.03,0 -3.68,1.65 -3.68,3.68 0,2.03 1.65,3.68 3.68,3.68 2.03,0 3.68,-1.65 3.68,-3.68 0,-2.03 -1.65,-3.68 -3.68,-3.68z"/>
    <path class="fil1" d="M177.77 376.92c-4.25,0 -7.7,-3.45 -7.7,-7.7 0,-4.25 3.45,-7.7 7.7,-7.7 4.25,0 7.7,3.45 7.7,7.7 0,4.25 -3.46,7.7 -7.7,7.7zm0 -11.38c-2.03,0 -3.68,1.65 -3.68,3.68 0,2.03 1.65,3.68 3.68,3.68 2.03,0 3.68,-1.65 3.68,-3.68 0,-2.03 -1.65,-3.68 -3.68,-3.68z"/>
    <path class="fil1" d="M209.51 376.92c-4.24,0 -7.7,-3.45 -7.7,-7.7 0,-4.25 3.45,-7.7 7.7,-7.7 4.25,0 7.7,3.45 7.7,7.7 0,4.25 -3.45,7.7 -7.7,7.7zm0 -11.38c-2.03,0 -3.68,1.65 -3.68,3.68 0,2.03 1.65,3.68 3.68,3.68 2.03,0 3.68,-1.65 3.68,-3.68 0,-2.03 -1.65,-3.68 -3.68,-3.68z"/>
    <path class="fil1" d="M241.26 376.92c-4.25,0 -7.7,-3.45 -7.7,-7.7 0,-4.25 3.45,-7.7 7.7,-7.7 4.25,0 7.7,3.45 7.7,7.7 0,4.25 -3.46,7.7 -7.7,7.7zm0 -11.38c-2.03,0 -3.68,1.65 -3.68,3.68 0,2.03 1.65,3.68 3.68,3.68 2.03,0 3.68,-1.65 3.68,-3.68 0,-2.03 -1.65,-3.68 -3.68,-3.68z"/>
   </g>
   <g>
    <path class="fil1" d="M241.03 79.04c0.54,5.3 0.95,10.59 1.24,15.86 5.75,1.83 11.45,3.9 17.07,6.23 -5.72,0.94 -11.28,2.12 -16.69,3.53 0.12,5.25 0.12,10.48 -0.01,15.69 -3.04,-4.36 -6.32,-8.65 -9.83,-12.84 -5.21,1.67 -10.24,3.56 -15.1,5.63 2.65,-4.48 5.43,-8.91 8.32,-13.29 -3.8,-4.07 -7.83,-8.03 -12.09,-11.86 5.9,1.02 11.77,2.28 17.59,3.8 3.05,-4.31 6.21,-8.57 9.49,-12.76z"/>
    <path class="fil1" d="M177.77 70.08c1.97,4.94 3.82,9.9 5.53,14.89 5.97,0.16 11.93,0.56 17.87,1.22 -5.14,2.51 -10.09,5.19 -14.84,8.05 1.56,5.01 2.98,10.04 4.28,15.08 -4.07,-3.34 -8.36,-6.54 -12.85,-9.59 -4.49,3.05 -8.78,6.26 -12.85,9.59 1.3,-5.04 2.73,-10.07 4.28,-15.08 -4.74,-2.86 -9.69,-5.55 -14.83,-8.05 5.94,-0.65 11.9,-1.06 17.87,-1.22 1.72,-4.99 3.56,-9.95 5.53,-14.89z"/>
    <path class="fil1" d="M114.51 79.04c3.28,4.19 6.45,8.45 9.49,12.76 5.82,-1.52 11.69,-2.78 17.59,-3.8 -4.26,3.83 -8.29,7.79 -12.09,11.86 2.9,4.38 5.67,8.81 8.32,13.29 -4.86,-2.08 -9.89,-3.96 -15.1,-5.63 -3.51,4.19 -6.79,8.48 -9.83,12.84 -0.13,-5.21 -0.14,-10.44 -0.01,-15.69 -5.41,-1.41 -10.98,-2.59 -16.69,-3.53 5.62,-2.33 11.32,-4.41 17.07,-6.23 0.28,-5.27 0.7,-10.56 1.24,-15.86z"/>
   </g>
   <polygon class="fil1" points="178.18,429.66 124.04,411.34 125.33,407.53 178.17,425.41 230.21,407.53 231.51,411.34 "/>
   <path class="fil3" d="M148.83 328.87c3.47,-4.75 4.75,-7.33 4.75,-10.85 0,-5.98 -4.67,-10.54 -11.08,-10.54 -6.33,0 -10.93,4.25 -10.93,10.5 0,5.87 4.02,9.92 9.88,9.92 0.39,0 0.77,-0.04 1.16,-0.12l-6.52 8.76 7.14 0 5.6 -7.68zm-1.66 -10.93c0,2.93 -1.85,4.9 -4.67,4.9 -2.74,0 -4.59,-1.97 -4.59,-4.9 0,-2.93 1.89,-4.94 4.59,-4.94 2.78,0 4.67,2.01 4.67,4.94zm8.96 4.4c0,8.84 4.63,14.71 12.47,14.71 7.84,0 12.47,-5.87 12.47,-14.71 0,-8.84 -5.02,-14.9 -12.47,-14.9 -7.45,0 -12.47,6.06 -12.47,14.9zm6.18 0c0,-6.33 2.32,-9.42 6.29,-9.42 3.98,0 6.29,3.09 6.29,9.42 0,6.14 -2.32,9.23 -6.29,9.23 -3.98,0 -6.29,-3.09 -6.29,-9.23zm21.54 0c0,8.84 4.63,14.71 12.47,14.71 7.84,0 12.47,-5.87 12.47,-14.71 0,-8.84 -5.02,-14.9 -12.47,-14.9 -7.45,0 -12.47,6.06 -12.47,14.9zm6.18 0c0,-6.33 2.32,-9.42 6.29,-9.42 3.98,0 6.29,3.09 6.29,9.42 0,6.14 -2.32,9.23 -6.29,9.23 -3.98,0 -6.29,-3.09 -6.29,-9.23zm27.95 -8.76l0 22.97 5.98 0 0 -28.57 -12.47 0 0 5.6 6.49 0z"/>
   <g>
    <path class="fil4" d="M233.64 175.12c-23.34,1.78 -36.24,16.55 -34.33,41.69 1.7,22.5 18.76,34.9 43.12,32.91 22.74,-1.86 36.17,-17.16 33.73,-41.96 -2.14,-21.73 -18.63,-34.46 -42.51,-32.64zm1.28 18.16c-5.04,0.61 -6.95,3.04 -8,7.81 -0.94,4.28 -0.98,10.22 -0.81,14.73 0.43,11.14 2.58,17.51 15.1,15.84 4.73,-0.63 6.57,-3.34 7.68,-7.87 1.07,-4.38 1.2,-10.07 1.01,-14.69 -0.46,-11.1 -2.77,-17.3 -14.98,-15.82z"/>
    <path class="fil4" d="M175.27 229.96c-3.51,5.32 -17.89,3.84 -26.07,-2.14 -1.29,-0.94 -1.78,-1.65 -2.88,-2.71 -1.3,-1.26 -1.64,-2.13 -2.53,-3.27l-14.14 0 -0.07 26.44 15.96 0.05 0 -5.41c2.25,1.07 4.19,2.39 6.71,3.44 8.46,3.53 16.08,4.6 25.35,2.56 10.51,-2.31 19.05,-8.78 19.62,-20.47 0.6,-12.44 -8.2,-19.43 -17.08,-23.02 -5.47,-2.21 -16.51,-4.96 -23.17,-6.98 -13.87,-4.21 -2.13,-9.86 11.03,-5.46 5.55,1.85 10.2,5.32 12.66,8.9l14.01 0 0.16 -24.81 -15.24 0.01 -0.06 4.32c-5.45,-2.27 -5.63,-3.63 -13.97,-5.33 -39.32,-8.02 -49.16,32.74 -19.03,43.23 4.99,1.74 10.04,3.14 15.07,4.67 3.59,1.09 12.7,3 13.68,5.96z"/>
    <path class="fil4" d="M174.99 294.03c15.98,0 30.12,-4.58 41.61,-11.29 3.1,-1.81 10.68,-7.17 13.36,-9.74 0.64,-0.61 1.01,-1.14 1.62,-1.72 3.25,-3.14 9.89,-9.84 12.03,-14.66 -3.89,-0.01 -2.06,-0.31 -6.25,4.79 -5.62,6.83 -4.78,5.69 -10.75,11.22 -0.92,0.85 -1.52,0.88 -2.29,2.07l-10.15 -6.36c2.05,-2.44 7.81,-9.19 9.02,-11.72 -3.78,0 -2.54,-0.15 -6.93,5.29l-4.31 5.36c-3.07,-0.67 -8.33,-3.84 -14.31,-4.91l2.27 -5.71c-2.06,-0.03 -2.8,-1.2 -4.75,4.96 -3.09,-0.41 -6.06,-1.16 -9.35,-1.55 -2.97,-0.35 -7.29,-0.25 -9.92,-0.78l0 -2.67 -2.46 0 0 2.75c-3.18,0.44 -6.61,0.41 -9.93,0.84 -3.24,0.43 -6.26,1.1 -9.33,1.69 -3.05,-5.89 -1.13,-5.29 -4.91,-5.28l2.3 5.74c-0.27,0.19 -13.09,5.12 -13.81,5.28 -2,-2.34 -7.71,-8.63 -8.8,-11l-3.07 0.02c0.68,1.76 5.42,7.21 7.1,9.36 0.99,1.27 1.68,1.65 2.46,3.02l-9.33 5.64c-0.88,-0.96 -1.18,-1.12 -2.13,-1.9 -3.68,-3.05 -7.78,-7.41 -10.79,-11.18 -4.1,-5.14 -2.29,-5.03 -6.37,-4.97 1.82,4.94 9.1,11.47 11.8,14.45 3.82,4.23 9.43,8.07 14.94,11.5 10.83,6.74 26.08,11.45 41.44,11.45zm-46.34 -18.04l6.23 4.51c2.18,1.27 4.37,2.52 6.81,3.62 13,5.84 10.74,4.12 14.27,1.76l-9.71 -7.06c-3.5,-2.73 -6,-4.9 -8.73,-7.89 -3.02,0.82 -6.32,3.97 -8.86,5.06zm11.18 -6.17c2.16,3.46 12.87,10.47 17.18,13.54 1.61,1.15 1.36,0.92 3.22,0.03 1.16,-0.55 2.65,-0.88 3.49,-1.67 -2.53,-2.76 -9.25,-13.19 -10.76,-16.75 -1.93,0.15 -5.07,1.31 -6.89,2 -1.43,0.54 -5.16,1.85 -6.24,2.85zm15.51 -5.56c1.98,4.63 8.11,13.45 11.08,16.84l6.98 -0.92 0 -18.15c-4.35,-0.37 -14.21,1.02 -18.06,2.22zm20.53 15.87l7.05 0.8c1.63,-2.59 3.82,-5.2 5.78,-8.2 1.88,-2.87 3.56,-5.49 5.15,-8.74 -3.5,-1.08 -14.34,-2.56 -17.98,-1.9l0 18.04zm9.68 1.48c7.85,2.9 4.36,3.21 13.02,-2.74 2.96,-2.04 9.67,-7.25 11.17,-9.8 -4.37,-1.34 -8.56,-3.88 -13.47,-4.45 -1.41,3.26 -3.25,5.97 -5.05,8.76l-5.67 8.23zm8.22 3.7c0.71,0.61 0.92,0.66 1.47,1.13 2.58,2.15 1.59,2.2 5.17,0.99 6.59,-2.22 16.63,-6.95 21.34,-11.07 -2.83,-2.06 -5.81,-4.42 -9.52,-5.83l-8.9 7.9c-2.9,2.26 -6.43,4.64 -9.57,6.89zm-37.87 3.91c18.44,3.18 19.99,3.22 38.59,0.05 -0.75,-1.16 -2.4,-2.07 -3.72,-2.82 -1.36,-0.78 -2.86,-1.4 -4.41,-1.92 -10.33,-3.42 -25.93,-1.38 -30.45,4.69z"/>
    <path class="fil4" d="M106.83 167.92c4.14,0.06 2.2,0.02 6.38,-4.97 2.96,-3.53 10.16,-11.61 13.74,-13.35 0.56,0.3 8.19,5.15 8.47,5.49l-5.04 6.03c-1.42,1.78 -4.12,4.68 -4.95,6.81 2.94,0.03 2.55,0.26 3.79,-1.28 2.42,-3.02 5.85,-8 8.54,-10.38 0.2,0.04 13.19,4.84 13.73,5.15 -0.46,2.04 -2.32,4.66 -2.4,6.53l2.29 -0 2.68 -5.83c2.46,0.08 6.6,1.22 9.37,1.57 3.32,0.42 6.68,0.44 9.97,0.83l0.04 3.42c3.47,0 2.33,0.23 2.5,-3.37 3.02,-0.47 6.82,-0.37 10.08,-0.76 3.13,-0.38 6.07,-0.94 9.01,-1.53 3.15,5.08 0.62,5.66 5.04,5.66l-2.42 -6.12c1.5,-0.89 5.14,-1.7 7.04,-2.39 2.47,-0.9 4.61,-1.96 6.83,-2.77 1.83,1.39 6.29,7.21 8.12,9.68 1.41,1.9 1.17,1.61 4.03,1.61 -0.42,-1.3 -3.6,-5.14 -4.54,-6.31l-4.94 -6.17c0.63,-0.57 9.19,-5.75 9.63,-5.91 3.51,3.2 6.91,5.67 9.78,9.16l6.29 7.85c1.3,1.82 1.27,1.4 3.72,1.38 -1.84,-5.39 -13.85,-16.78 -18.76,-20.6 -28.65,-22.32 -70.04,-22.23 -98.84,-0.29l-13.55 12.89c-1.29,1.47 -4.91,6.02 -5.62,7.97zm69.11 -24.18l-0.05 18.18c3.62,0.29 15.26,-0.89 17.94,-2.08 -2.17,-4.96 -7.8,-12.99 -11.01,-16.79l-6.88 0.69zm9.73 -1.31c2.55,4.14 9.24,12.44 10.55,16.86 4.87,-0.52 9.46,-3.35 13.54,-4.46 -0.98,-2.27 -3.19,-3.45 -5.13,-5.16 -3.63,-3.19 -7.82,-5.68 -11.63,-8.5 -1.57,-1.16 -1.62,-1.22 -3.55,-0.35 -1.34,0.61 -2.79,0.92 -3.78,1.59zm8.24 -3.73c1.31,1.29 10.88,7.35 14.07,10.61 1.54,1.57 2.55,3.04 4.27,4.08 2.02,-0.65 7.52,-4.12 8.92,-5.37 -0.83,-1.25 -4.82,-3.52 -6.15,-4.26 -2.12,-1.19 -4.48,-2.52 -6.86,-3.57 -1.58,-0.69 -9.71,-4.37 -11.36,-3.87l-2.9 2.39zm-37.24 -3.55c0.93,1.45 1.92,1.81 3.62,2.64 1.35,0.66 2.69,1.26 4.19,1.75 8.54,2.77 19.74,2.02 27.34,-2.64l1.93 -1.77c-14.41,-2.62 -22.63,-2.92 -37.09,0.02zm-1.23 24.41c2.14,1.33 14.91,2.63 17.98,2.29l-0.01 -18.17 -6.98 -0.9c-1.95,1.91 -10,13.83 -11,16.78zm-15.72 -5.32c3.8,1.8 8.51,3.75 12.93,4.72l5.3 -8.62c1.88,-2.91 4.25,-5.74 5.7,-8.29 -0.88,-0.63 -2.26,-0.97 -3.23,-1.45 -2.89,-1.46 -3,-0.46 -9.78,4.29 -3.12,2.18 -9.21,6.97 -10.92,9.35zm-10.58 -6.08c1.87,1.06 5.97,4.19 8.24,4.71 2.56,-2.69 5.57,-5.26 8.74,-7.66l9.86 -6.85c-2.24,-2.91 -2.78,-2.35 -6.58,-1.04 -4.44,1.52 -10.13,4.09 -14.05,6.45 -1.69,1.01 -5.03,2.78 -6.21,4.4z"/>
    <polygon class="fil4" points="79.1,191.96 79.11,193.44 89.58,193.47 89.57,230.84 79.1,230.9 79.1,248.4 124.71,248.4 124.78,230.9 114.47,230.89 114.29,193.46 124.76,193.44 124.78,175.93 79.26,175.93 "/>
   </g>
  </g>
  <g id="_2483866644576">
   <path class="fil0" d="M731.55 429.54l-132.87 58.72 -134.99 -58.72c0,-24.21 -19.63,-43.84 -43.84,-43.84l0 -341.87c24.21,0 43.84,-19.63 43.84,-43.84l267.86 0c0,24.21 19.63,43.84 43.84,43.84l0 341.87c-24.21,0 -43.84,19.63 -43.84,43.84z"/>
   <path class="fil1" d="M598.63 478.08l-1.13 -0.49 -129.35 -56.27 0 -1.85c0,-21.31 -17.34,-38.64 -38.64,-38.64l-2.82 -0 0 -328.93 2.82 0c21.31,0 38.64,-17.34 38.64,-38.64l0 -2.82 258.95 0 0 2.82c0,21.31 17.34,38.64 38.64,38.64l2.82 0 0 328.93 -2.82 0c-21.31,0 -38.64,17.33 -38.64,38.64l0 1.83 -128.46 56.77zm-124.89 -60.47l124.88 54.32 122.89 -54.31c0.93,-22.62 18.93,-40.91 41.42,-42.33l0 -317.85c-22.17,-1.4 -39.97,-19.2 -41.37,-41.37l-247.86 0c-1.4,22.17 -19.2,39.97 -41.37,41.37l0 317.85c22.49,1.42 40.48,19.71 41.42,42.32z"/>
   <g>
    <path class="fil1" d="M534.13 376.92c-4.25,0 -7.7,-3.45 -7.7,-7.7 0,-4.25 3.45,-7.7 7.7,-7.7 4.25,0 7.7,3.45 7.7,7.7 0,4.25 -3.45,7.7 -7.7,7.7zm0 -11.38c-2.03,0 -3.68,1.65 -3.68,3.68 0,2.03 1.65,3.68 3.68,3.68 2.03,0 3.68,-1.65 3.68,-3.68 0,-2.03 -1.65,-3.68 -3.68,-3.68z"/>
    <path class="fil1" d="M565.88 376.92c-4.25,0 -7.7,-3.45 -7.7,-7.7 0,-4.25 3.45,-7.7 7.7,-7.7 4.25,0 7.7,3.45 7.7,7.7 0,4.25 -3.45,7.7 -7.7,7.7zm0 -11.38c-2.03,0 -3.68,1.65 -3.68,3.68 0,2.03 1.65,3.68 3.68,3.68 2.03,0 3.68,-1.65 3.68,-3.68 0,-2.03 -1.65,-3.68 -3.68,-3.68z"/>
    <path class="fil1" d="M597.62 376.92c-4.25,0 -7.7,-3.45 -7.7,-7.7 0,-4.25 3.45,-7.7 7.7,-7.7 4.25,0 7.7,3.45 7.7,7.7 0,4.25 -3.46,7.7 -7.7,7.7zm0 -11.38c-2.03,0 -3.68,1.65 -3.68,3.68 0,2.03 1.65,3.68 3.68,3.68 2.03,0 3.68,-1.65 3.68,-3.68 0,-2.03 -1.65,-3.68 -3.68,-3.68z"/>
    <path class="fil1" d="M629.36 376.92c-4.24,0 -7.7,-3.45 -7.7,-7.7 0,-4.25 3.45,-7.7 7.7,-7.7 4.25,0 7.7,3.45 7.7,7.7 0,4.25 -3.45,7.7 -7.7,7.7zm0 -11.38c-2.03,0 -3.68,1.65 -3.68,3.68 0,2.03 1.65,3.68 3.68,3.68 2.03,0 3.68,-1.65 3.68,-3.68 0,-2.03 -1.65,-3.68 -3.68,-3.68z"/>
    <path class="fil1" d="M661.11 376.92c-4.25,0 -7.7,-3.45 -7.7,-7.7 0,-4.25 3.45,-7.7 7.7,-7.7 4.25,0 7.7,3.45 7.7,7.7 0,4.25 -3.46,7.7 -7.7,7.7zm0 -11.38c-2.03,0 -3.68,1.65 -3.68,3.68 0,2.03 1.65,3.68 3.68,3.68 2.03,0 3.68,-1.65 3.68,-3.68 0,-2.03 -1.65,-3.68 -3.68,-3.68z"/>
   </g>
   <g>
    <path class="fil1" d="M660.88 79.04c0.54,5.3 0.96,10.59 1.24,15.86 5.75,1.83 11.45,3.9 17.07,6.23 -5.72,0.94 -11.28,2.12 -16.69,3.53 0.12,5.25 0.12,10.48 -0.01,15.69 -3.04,-4.36 -6.32,-8.65 -9.83,-12.84 -5.21,1.67 -10.24,3.56 -15.1,5.63 2.65,-4.48 5.43,-8.91 8.32,-13.29 -3.8,-4.07 -7.83,-8.03 -12.09,-11.86 5.9,1.02 11.77,2.28 17.59,3.8 3.05,-4.31 6.21,-8.57 9.49,-12.76z"/>
    <path class="fil1" d="M597.62 70.08c1.97,4.94 3.82,9.9 5.53,14.89 5.97,0.16 11.93,0.56 17.87,1.22 -5.14,2.51 -10.09,5.19 -14.83,8.05 1.56,5.01 2.98,10.04 4.28,15.08 -4.07,-3.34 -8.36,-6.54 -12.85,-9.59 -4.49,3.05 -8.78,6.26 -12.85,9.59 1.3,-5.04 2.73,-10.07 4.28,-15.08 -4.75,-2.86 -9.69,-5.55 -14.84,-8.05 5.94,-0.65 11.9,-1.06 17.87,-1.22 1.72,-4.99 3.56,-9.95 5.53,-14.89z"/>
    <path class="fil1" d="M534.36 79.04c3.28,4.19 6.45,8.45 9.49,12.76 5.82,-1.52 11.69,-2.78 17.59,-3.8 -4.26,3.83 -8.29,7.79 -12.09,11.86 2.9,4.38 5.67,8.81 8.32,13.29 -4.86,-2.08 -9.89,-3.96 -15.1,-5.63 -3.51,4.19 -6.79,8.48 -9.83,12.84 -0.13,-5.21 -0.14,-10.44 -0.01,-15.69 -5.41,-1.41 -10.98,-2.59 -16.69,-3.53 5.62,-2.33 11.32,-4.41 17.07,-6.23 0.28,-5.27 0.7,-10.56 1.24,-15.86z"/>
   </g>
   <polygon class="fil1" points="598.03,429.66 543.89,411.34 545.18,407.53 598.02,425.41 650.06,407.53 651.37,411.34 "/>
   <path class="fil2" d="M467.74 182.82l-12.35 0 0 56.4 12.35 0 0 -56.4zm8.61 16.39c0,9.22 5.18,14.94 15.24,17l8.61 1.75c3.73,0.76 5.18,2.36 5.18,5.49 0,3.58 -3.5,5.79 -9.07,5.79 -5.49,0 -8.54,-2.29 -8.54,-6.4l-12.27 0c0,10.59 8.15,17.38 20.73,17.38 12.96,0 21.49,-7.09 21.49,-17.99 0,-8.92 -4.8,-13.72 -14.86,-15.78l-8.46 -1.75c-3.96,-0.84 -5.72,-2.52 -5.72,-5.94 0,-3.73 3.2,-6.02 8.23,-6.02 4.65,0 7.62,2.44 7.62,6.4l12.27 0c0,-10.67 -7.62,-17.38 -19.74,-17.38 -12.12,0 -20.73,7.24 -20.73,17.45zm101.68 11.74c0,-17.22 -11.28,-29.11 -27.67,-29.11 -16.31,0 -27.59,11.97 -27.59,29.19 0,17.22 11.2,29.12 27.52,29.12 16.39,0 27.74,-11.97 27.74,-29.19zm-13.03 0c0,10.67 -5.49,17.3 -14.56,17.3 -9.15,0 -14.63,-6.48 -14.63,-17.3 0,-10.75 5.49,-17.22 14.63,-17.22 9.07,0 14.56,6.48 14.56,17.22zm25.91 28.28l22.03 -56.25 -11.74 0 -21.95 56.25 11.66 0zm40.24 -56.4l-12.35 0 0 56.4 12.35 0 0 -56.4zm47.56 56.4l0 -11.43 -23.48 0 0 -11.66 20.81 0 0 -10.82 -20.81 0 0 -11.05 23.48 0 0 -11.43 -35.82 0 0 56.4 35.82 0zm34.53 0.92c14.1,0 24.62,-8.31 26.6,-20.88l-12.8 0c-1.52,5.56 -6.63,8.99 -13.57,8.99 -9.07,0 -14.71,-6.63 -14.71,-17.22 0,-10.75 5.56,-17.23 14.71,-17.23 6.78,0 11.59,3.2 13.26,8.84l13.03 0c-1.75,-12.65 -11.89,-20.73 -25.99,-20.73 -16.84,0 -28.05,11.59 -28.05,29.19 0,17.84 10.59,29.04 27.52,29.04z"/>
   <path class="fil4" d="M597.39 291.17c17.4,0 32.79,-4.99 45.29,-12.29 3.37,-1.97 11.62,-7.8 14.54,-10.61 0.69,-0.67 1.11,-1.24 1.76,-1.87 3.54,-3.42 10.77,-10.71 13.1,-15.96 -4.24,-0.01 -2.24,-0.34 -6.81,5.21 -6.12,7.44 -5.2,6.19 -11.71,12.21 -1,0.93 -1.66,0.96 -2.5,2.26l-11.05 -6.93c2.23,-2.65 8.5,-10 9.82,-12.76 -4.11,0 -2.77,-0.16 -7.55,5.76l-4.69 5.84c-3.34,-0.73 -9.07,-4.18 -15.58,-5.35l2.48 -6.21c-2.24,-0.04 -3.05,-1.31 -5.17,5.4 -3.36,-0.44 -6.6,-1.26 -10.18,-1.69 -3.23,-0.38 -7.94,-0.27 -10.8,-0.85l0 -2.91 -2.68 0 0 2.99c-3.46,0.47 -7.2,0.45 -10.81,0.92 -3.53,0.46 -6.81,1.2 -10.15,1.84 -3.32,-6.41 -1.23,-5.76 -5.35,-5.75l2.5 6.25c-0.29,0.21 -14.25,5.58 -15.03,5.75 -2.18,-2.55 -8.39,-9.39 -9.58,-11.98l-3.34 0.03c0.74,1.91 5.9,7.85 7.73,10.19 1.08,1.39 1.83,1.79 2.68,3.29l-10.16 6.14c-0.96,-1.04 -1.29,-1.22 -2.32,-2.07 -4,-3.32 -8.47,-8.06 -11.75,-12.17 -4.47,-5.59 -2.49,-5.47 -6.94,-5.42 1.98,5.37 9.9,12.48 12.84,15.73 4.16,4.6 10.27,8.79 16.27,12.52 11.8,7.34 28.39,12.47 45.11,12.47zm-50.45 -19.64l6.78 4.91c2.37,1.38 4.76,2.74 7.41,3.93 14.15,6.36 11.69,4.49 15.54,1.92l-10.58 -7.68c-3.81,-2.97 -6.53,-5.33 -9.5,-8.59 -3.29,0.89 -6.88,4.33 -9.65,5.51zm12.17 -6.72c2.35,3.77 14.01,11.4 18.7,14.74 1.75,1.25 1.48,1 3.51,0.03 1.26,-0.6 2.89,-0.96 3.8,-1.82 -2.76,-3.01 -10.07,-14.36 -11.72,-18.23 -2.1,0.17 -5.51,1.42 -7.5,2.17 -1.56,0.59 -5.62,2.02 -6.79,3.1zm16.89 -6.05c2.15,5.04 8.83,14.65 12.06,18.34l7.61 -1 0 -19.76c-4.73,-0.4 -15.47,1.11 -19.66,2.42zm22.35 17.28l7.68 0.87c1.78,-2.82 4.16,-5.66 6.29,-8.92 2.05,-3.13 3.88,-5.97 5.6,-9.51 -3.81,-1.18 -15.61,-2.78 -19.57,-2.07l0 19.64zm10.54 1.61c8.55,3.16 4.75,3.5 14.17,-2.98 3.23,-2.22 10.53,-7.9 12.16,-10.67 -4.75,-1.46 -9.31,-4.22 -14.66,-4.84 -1.54,3.54 -3.54,6.5 -5.5,9.54l-6.17 8.96zm8.95 4.03c0.78,0.66 1,0.72 1.61,1.23 2.81,2.34 1.73,2.39 5.63,1.08 7.17,-2.42 18.1,-7.57 23.23,-12.05 -3.08,-2.25 -6.33,-4.81 -10.36,-6.35l-9.69 8.6c-3.15,2.46 -7,5.05 -10.42,7.5zm-41.22 4.26c20.08,3.47 21.76,3.51 42.01,0.05 -0.82,-1.26 -2.61,-2.25 -4.05,-3.07 -1.48,-0.85 -3.11,-1.53 -4.81,-2.09 -11.25,-3.73 -28.23,-1.5 -33.15,5.11z"/>
   <path class="fil4" d="M523.18 171.23c4.5,0.06 2.39,0.02 6.94,-5.41 3.22,-3.84 11.07,-12.64 14.96,-14.53 0.61,0.33 8.91,5.61 9.22,5.98l-5.49 6.56c-1.55,1.94 -4.48,5.1 -5.39,7.41 3.2,0.03 2.78,0.28 4.12,-1.4 2.64,-3.29 6.37,-8.71 9.3,-11.3 0.22,0.04 14.36,5.27 14.95,5.61 -0.5,2.23 -2.52,5.07 -2.62,7.11l2.49 -0 2.92 -6.34c2.67,0.09 7.18,1.33 10.2,1.71 3.62,0.46 7.28,0.49 10.85,0.9l0.05 3.73c3.78,0 2.53,0.25 2.72,-3.67 3.28,-0.52 7.43,-0.4 10.97,-0.83 3.4,-0.41 6.61,-1.03 9.8,-1.66 3.43,5.53 0.68,6.16 5.49,6.16l-2.63 -6.67c1.64,-0.96 5.6,-1.85 7.67,-2.6 2.68,-0.98 5.03,-2.14 7.44,-3.02 1.99,1.51 6.85,7.85 8.84,10.54 1.53,2.07 1.28,1.75 4.38,1.75 -0.45,-1.42 -3.92,-5.59 -4.94,-6.88l-5.38 -6.72c0.69,-0.61 10,-6.26 10.48,-6.43 3.82,3.49 7.53,6.17 10.65,9.97l6.85 8.54c1.42,1.97 1.38,1.52 4.04,1.5 -2,-5.86 -15.08,-18.26 -20.42,-22.42 -31.19,-24.3 -76.25,-24.2 -107.61,-0.31l-14.75 14.04c-1.41,1.6 -5.34,6.56 -6.11,8.68zm75.24 -26.33l-0.06 19.79c3.94,0.31 16.62,-0.96 19.53,-2.26 -2.36,-5.4 -8.5,-14.14 -11.99,-18.28l-7.49 0.75zm10.59 -1.43c2.77,4.51 10.05,13.55 11.48,18.36 5.3,-0.56 10.3,-3.64 14.74,-4.85 -1.07,-2.47 -3.47,-3.76 -5.58,-5.62 -3.95,-3.47 -8.51,-6.18 -12.66,-9.25 -1.71,-1.27 -1.76,-1.33 -3.87,-0.38 -1.46,0.66 -3.04,1 -4.11,1.73zm8.97 -4.06c1.43,1.4 11.85,8 15.32,11.55 1.68,1.71 2.77,3.3 4.65,4.44 2.2,-0.71 8.19,-4.49 9.71,-5.85 -0.91,-1.36 -5.25,-3.83 -6.69,-4.64 -2.3,-1.3 -4.88,-2.75 -7.47,-3.88 -1.72,-0.75 -10.57,-4.76 -12.36,-4.21l-3.15 2.6zm-40.55 -3.86c1.01,1.57 2.09,1.97 3.94,2.87 1.47,0.72 2.93,1.37 4.57,1.9 9.29,3.02 21.49,2.2 29.77,-2.87l2.1 -1.93c-15.69,-2.86 -24.63,-3.18 -40.38,0.02zm-1.33 26.57c2.34,1.45 16.23,2.87 19.58,2.5l-0.01 -19.78 -7.6 -0.98c-2.12,2.08 -10.89,15.05 -11.98,18.27zm-17.11 -5.79c4.14,1.96 9.26,4.08 14.08,5.13l5.77 -9.39c2.05,-3.17 4.62,-6.25 6.2,-9.02 -0.96,-0.69 -2.46,-1.05 -3.51,-1.58 -3.15,-1.59 -3.27,-0.5 -10.65,4.67 -3.39,2.37 -10.03,7.59 -11.89,10.18zm-11.51 -6.62c2.03,1.15 6.5,4.56 8.97,5.12 2.79,-2.93 6.06,-5.73 9.52,-8.34l10.74 -7.46c-2.43,-3.17 -3.02,-2.56 -7.16,-1.14 -4.83,1.66 -11.03,4.45 -15.3,7.02 -1.84,1.11 -5.48,3.03 -6.76,4.79z"/>
   <path class="fil2" d="M562.35 336.48l0 -5.79 -10.42 0 4.29 -3.59c3.55,-2.97 5.91,-6.14 5.91,-10.04 0,-6.1 -3.9,-9.61 -10.42,-9.61 -6.29,0 -10.39,4.17 -10.39,10.58l6.22 0c0,-3.2 1.54,-5.02 4.21,-5.02 2.55,0 3.98,1.54 3.98,4.44 0,2.35 -1.27,4.13 -4.33,6.64l-9.42 7.84 0 4.63 20.39 -0.08zm1.35 -28.49l0 5.79 14.9 0 -10.04 22.78 6.49 0 9.84 -22.78 0 -5.79 -21.2 0zm22.39 14.36c0,8.84 4.63,14.71 12.47,14.71 7.84,0 12.47,-5.87 12.47,-14.71 0,-8.84 -5.02,-14.9 -12.47,-14.9 -7.45,0 -12.47,6.06 -12.47,14.9zm6.18 0c0,-6.33 2.32,-9.42 6.29,-9.42 3.98,0 6.29,3.09 6.29,9.42 0,6.14 -2.32,9.23 -6.29,9.23 -3.98,0 -6.29,-3.09 -6.29,-9.23zm21.54 0c0,8.84 4.63,14.71 12.47,14.71 7.84,0 12.47,-5.87 12.47,-14.71 0,-8.84 -5.02,-14.9 -12.47,-14.9 -7.45,0 -12.47,6.06 -12.47,14.9zm6.18 0c0,-6.33 2.32,-9.42 6.29,-9.42 3.98,0 6.29,3.09 6.29,9.42 0,6.14 -2.32,9.23 -6.29,9.23 -3.98,0 -6.29,-3.09 -6.29,-9.23zm27.95 -8.76l0 22.97 5.98 0 0 -28.57 -12.47 0 0 5.6 6.49 0z"/>
  </g>
 </g>
</svg>
