<?xml version="1.0" encoding="UTF-8"?>
<!DOCTYPE svg PUBLIC "-//W3C//DTD SVG 1.1//EN" "http://www.w3.org/Graphics/SVG/1.1/DTD/svg11.dtd">
<!-- Creator: CorelDRAW 2018 (64-Bit) -->
<svg xmlns="http://www.w3.org/2000/svg" xml:space="preserve" width="6.16242in" height="1.69046in" version="1.1" style="shape-rendering:geometricPrecision; text-rendering:geometricPrecision; image-rendering:optimizeQuality; fill-rule:evenodd; clip-rule:evenodd"
viewBox="0 0 5998.93 1645.61"
 xmlns:xlink="http://www.w3.org/1999/xlink">
 <defs>
  <style type="text/css">
   <![CDATA[
    .fil0 {fill:#BDBFC1;fill-rule:nonzero}
    .fil1 {fill:#7D3B92;fill-rule:nonzero}
    .fil2 {fill:#3B345D;fill-rule:nonzero}
   ]]>
  </style>
 </defs>
 <g id="Layer_x0020_1">
  <metadata id="CorelCorpID_0Corel-Layer"/>
  <path class="fil0" d="M505.93 1139.66l182.98 -49.02c41.37,20.69 87.63,31.6 134.07,31.6 80.04,0 155.29,-31.16 211.88,-87.76 56.6,-56.6 87.77,-131.84 87.77,-211.88 0,-80.04 -31.17,-155.29 -87.77,-211.88 -56.59,-56.6 -131.84,-87.76 -211.88,-87.76 -80.04,0 -155.28,31.17 -211.88,87.76 -56.6,56.6 -87.77,131.84 -87.77,211.88 0,46.45 10.92,92.71 31.6,134.08l-49.01 182.98zm-128.74 -63.31l-2.2 -3.94c-111.2,-199.12 -76.09,-450.95 85.38,-612.42 199.95,-199.95 525.29,-199.95 725.24,0 199.95,199.96 199.95,525.3 0,725.25 -161.47,161.47 -413.3,196.58 -612.42,85.38l-3.94 -2.21 -262.38 70.34 70.33 -262.38z"/>
  <path class="fil1" d="M206.75 1368.1c-136.85,-154.27 -210.09,-352.1 -206.63,-559.33 3.58,-214.55 89.15,-416.31 240.93,-568.1 318.26,-318.26 834.45,-320.87 1155.94,-7.82l-150.77 150.77c-238.35,-229.93 -619.29,-227.32 -854.42,7.81 -187.5,187.5 -232.56,471.12 -112.77,707.05l-72.29 269.63zm340.38 -1.54c232.6,118.12 511.59,75.97 699.1,-104.97l150.77 150.77c-150.85,146.9 -349.33,229.6 -560.15,233.12 -207.24,3.47 -405.07,-69.78 -559.35,-206.64l269.63 -72.29z"/>
  <path class="fil1" d="M721.76 822.62c0,25.64 -20.79,46.42 -46.42,46.42 -25.64,0 -46.42,-20.78 -46.42,-46.42 0,-25.64 20.78,-46.42 46.42,-46.42 25.63,0 46.42,20.78 46.42,46.42z"/>
  <path class="fil1" d="M869.4 822.62c0,25.64 -20.78,46.42 -46.42,46.42 -25.64,0 -46.42,-20.78 -46.42,-46.42 0,-25.64 20.78,-46.42 46.42,-46.42 25.64,0 46.42,20.78 46.42,46.42z"/>
  <path class="fil1" d="M1017.04 822.62c0,25.64 -20.78,46.42 -46.41,46.42 -25.64,0 -46.42,-20.78 -46.42,-46.42 0,-25.64 20.78,-46.42 46.42,-46.42 25.64,0 46.41,20.78 46.41,46.42z"/>
  <path class="fil2" d="M2574.82 1001.09c0,-335.23 -224.17,-561.46 -538.84,-561.46 -314.66,0 -547.07,232.4 -547.07,555.29 0,324.95 234.46,557.35 586.14,557.35 180.98,0 331.12,-61.7 429.84,-176.87l-109 -127.51c-80.21,88.44 -187.16,131.63 -314.66,131.63 -215.95,0 -370.19,-127.51 -394.88,-318.78l884.35 0c2.05,-18.51 4.11,-43.19 4.11,-59.64zm-538.84 -394.87c191.27,0 329.06,129.57 349.63,312.61l-699.26 0c20.57,-185.1 160.42,-312.61 349.63,-312.61zm744.05 933.71l197.44 0 0 -1526.02 -197.44 0 0 1526.02zm505.48 0l197.44 0 0 -1090.01 -197.44 0 0 1090.01zm1056.66 -205.66c-41.13,32.91 -96.66,51.42 -154.25,51.42 -109,0 -170.7,-65.81 -170.7,-183.04l0 -590.25 312.61 0 0 -162.47 -312.61 0 0 -238.57 -197.44 0 0 238.57 -185.1 0 0 162.47 185.1 0 0 598.48c0,220.06 125.45,341.4 345.52,341.4 88.44,0 178.93,-24.68 238.57,-76.1l-61.7 -141.91zm231.95 205.66l197.44 0 0 -1090.01 -197.44 0 0 1090.01zm1424.8 0l-433.95 -557.35 411.33 -532.67 -215.95 0 -298.21 392.81 -300.27 -392.81 -220.06 0 409.27 532.67 -429.84 557.35 220.06 0 318.78 -417.5 314.67 417.5 224.17 0z"/>
  <path class="fil1" d="M3517.63 150.53c0,74.37 -60.29,134.65 -134.67,134.65 -74.35,0 -134.65,-60.29 -134.65,-134.65 0,-74.37 60.3,-134.66 134.65,-134.66 74.37,0 134.67,60.29 134.67,134.66z"/>
  <path class="fil1" d="M4809.95 150.53c0,74.37 -60.29,134.65 -134.62,134.65 -74.38,0 -134.66,-60.29 -134.66,-134.65 0,-74.37 60.29,-134.66 134.66,-134.66 74.34,0 134.62,60.29 134.62,134.66z"/>
 </g>
</svg>
