<?xml version="1.0" encoding="UTF-8"?>
<!DOCTYPE svg PUBLIC "-//W3C//DTD SVG 1.1//EN" "http://www.w3.org/Graphics/SVG/1.1/DTD/svg11.dtd">
<!-- Creator: CorelDRAW 2018 (64-Bit) -->
<svg xmlns="http://www.w3.org/2000/svg" xml:space="preserve" width="4.90445in" height="1.34537in" version="1.1" style="shape-rendering:geometricPrecision; text-rendering:geometricPrecision; image-rendering:optimizeQuality; fill-rule:evenodd; clip-rule:evenodd"
viewBox="0 0 4822.33 1322.85"
 xmlns:xlink="http://www.w3.org/1999/xlink">
 <defs>
  <style type="text/css">
   <![CDATA[
    .fil1 {fill:#FEFEFE;fill-rule:nonzero}
    .fil0 {fill:#BDBFC1;fill-rule:nonzero}
   ]]>
  </style>
 </defs>
 <g id="Layer_x0020_1">
  <metadata id="CorelCorpID_0Corel-Layer"/>
  <path class="fil0" d="M406.7 916.14l147.09 -39.4c33.26,16.63 70.45,25.41 107.78,25.41 64.34,0 124.83,-25.05 170.33,-70.55 45.49,-45.5 70.55,-105.99 70.55,-170.33 0,-64.34 -25.05,-124.83 -70.55,-170.32 -45.49,-45.49 -105.99,-70.55 -170.32,-70.55 -64.34,0 -124.83,25.06 -170.32,70.55 -45.5,45.5 -70.56,105.98 -70.55,170.32 0,37.34 8.78,74.53 25.41,107.78l-39.4 147.09zm-103.49 -50.89l-1.77 -3.17c-89.39,-160.07 -61.16,-362.5 68.63,-492.31 160.73,-160.73 422.27,-160.73 583,0 160.74,160.74 160.74,422.27 0,583 -129.8,129.8 -332.24,158.03 -492.3,68.63l-3.17 -1.77 -210.92 56.54 56.54 -210.92z"/>
  <path class="fil1" d="M166.2 1099.77c-110,-124.01 -168.88,-283.03 -166.1,-449.63 2.88,-172.47 71.67,-334.66 193.68,-456.67 255.84,-255.83 670.78,-257.94 929.22,-6.29l-121.2 121.2c-191.6,-184.83 -497.82,-182.74 -686.84,6.28 -150.72,150.72 -186.94,378.72 -90.65,568.37l-58.11 216.75zm273.62 -1.24c186.98,94.95 411.25,61.07 561.98,-84.38l121.2 121.2c-121.26,118.09 -280.81,184.57 -450.28,187.4 -166.59,2.79 -325.62,-56.1 -449.64,-166.11l216.75 -58.11z"/>
  <path class="fil1" d="M580.2 661.28c0,20.61 -16.71,37.32 -37.31,37.32 -20.61,0 -37.31,-16.71 -37.31,-37.32 0,-20.61 16.7,-37.31 37.31,-37.31 20.6,0 37.31,16.71 37.31,37.31z"/>
  <path class="fil1" d="M698.88 661.28c0,20.61 -16.7,37.32 -37.31,37.32 -20.61,0 -37.31,-16.71 -37.31,-37.32 0,-20.61 16.71,-37.31 37.31,-37.31 20.61,0 37.31,16.71 37.31,37.31z"/>
  <path class="fil1" d="M817.57 661.28c0,20.61 -16.71,37.32 -37.31,37.32 -20.61,0 -37.31,-16.71 -37.31,-37.32 0,-20.61 16.7,-37.31 37.31,-37.31 20.61,0 37.31,16.71 37.31,37.31z"/>
  <path class="fil1" d="M2069.81 804.74c0,-269.48 -180.21,-451.34 -433.16,-451.34 -252.95,0 -439.77,186.81 -439.77,446.38 0,261.21 188.47,448.03 471.18,448.03 145.48,0 266.17,-49.6 345.53,-142.18l-87.62 -102.5c-64.48,71.09 -150.45,105.81 -252.95,105.81 -173.59,0 -297.59,-102.5 -317.43,-256.25l710.9 0c1.65,-14.88 3.31,-34.72 3.31,-47.94zm-433.16 -317.43c153.75,0 264.52,104.16 281.05,251.3l-562.1 0c16.53,-148.79 128.95,-251.3 281.05,-251.3zm598.12 750.58l158.71 0 0 -1226.71 -158.71 0 0 1226.71zm406.34 0l158.71 0 0 -876.22 -158.71 0 0 876.22zm849.41 -165.33c-33.07,26.45 -77.7,41.33 -123.99,41.33 -87.62,0 -137.22,-52.9 -137.22,-147.14l0 -474.48 251.3 0 0 -130.61 -251.3 0 0 -191.78 -158.71 0 0 191.78 -148.79 0 0 130.61 148.79 0 0 481.1c0,176.9 100.85,274.44 277.75,274.44 71.09,0 143.83,-19.84 191.78,-61.17l-49.6 -114.08zm186.45 165.33l158.71 0 0 -876.22 -158.71 0 0 876.22zm1145.35 0l-348.84 -448.03 330.65 -428.19 -173.59 0 -239.72 315.77 -241.38 -315.77 -176.9 0 329 428.19 -345.53 448.03 176.9 0 256.26 -335.61 252.94 335.61 180.21 0z"/>
  <path class="fil1" d="M2827.7 121.01c0,59.78 -48.47,108.24 -108.25,108.24 -59.77,0 -108.24,-48.46 -108.24,-108.24 0,-59.79 48.47,-108.25 108.24,-108.25 59.79,0 108.25,48.46 108.25,108.25z"/>
  <path class="fil1" d="M3866.55 121.01c0,59.78 -48.46,108.24 -108.22,108.24 -59.79,0 -108.25,-48.46 -108.25,-108.24 0,-59.79 48.46,-108.25 108.25,-108.25 59.75,0 108.22,48.46 108.22,108.25z"/>
 </g>
</svg>
